<?xml version="1.0" encoding="UTF-8" standalone="no"?>
<!-- Created with Inkscape (http://www.inkscape.org/) -->

<svg
   version="1.1"
   id="svg1"
   width="532"
   height="93.333336"
   viewBox="0 0 532 93.333336"
   sodipodi:docname="heat3.pdf"
   xmlns:inkscape="http://www.inkscape.org/namespaces/inkscape"
   xmlns:sodipodi="http://sodipodi.sourceforge.net/DTD/sodipodi-0.dtd"
   xmlns="http://www.w3.org/2000/svg"
   xmlns:svg="http://www.w3.org/2000/svg">
  <sodipodi:namedview
     id="namedview1"
     pagecolor="#ffffff"
     bordercolor="#666666"
     borderopacity="1.0"
     inkscape:showpageshadow="2"
     inkscape:pageopacity="0.0"
     inkscape:pagecheckerboard="0"
     inkscape:deskcolor="#d1d1d1"
     showgrid="false"
     inkscape:zoom="2.2556391"
     inkscape:cx="266"
     inkscape:cy="46.771667"
     inkscape:window-width="1920"
     inkscape:window-height="1043"
     inkscape:window-x="1920"
     inkscape:window-y="0"
     inkscape:window-maximized="1"
     inkscape:current-layer="g1" />
  <defs
     id="defs1">
    <clipPath
       clipPathUnits="userSpaceOnUse"
       id="clipPath2">
      <path
         d="M 0,700 H 1865 V 0 H 0 Z"
         id="path2" />
    </clipPath>
    <clipPath
       clipPathUnits="userSpaceOnUse"
       id="clipPath4">
      <path
         d="M 0,700 H 1865 V 0 H 0 Z"
         id="path4" />
    </clipPath>
    <clipPath
       clipPathUnits="userSpaceOnUse"
       id="clipPath6">
      <path
         d="M 0,700 H 1865 V 0 H 0 Z"
         id="path6" />
    </clipPath>
    <clipPath
       clipPathUnits="userSpaceOnUse"
       id="clipPath8">
      <path
         d="M 0,700 H 1865 V 0 H 0 Z"
         id="path8" />
    </clipPath>
  </defs>
  <g
     id="g1"
     inkscape:groupmode="layer"
     inkscape:label="1">
    <path
       id="path1"
       d="M 47.1992,561.199 H 1653.6"
       style="fill:none;stroke:#000000;stroke-width:10;stroke-linecap:butt;stroke-linejoin:miter;stroke-miterlimit:10;stroke-dasharray:none;stroke-opacity:1"
       transform="matrix(0.13333333,0,0,-0.13333333,0,93.333333)"
       clip-path="url(#clipPath2)" />
    <path
       id="path3"
       d="m 47.1992,58.8008 h 1606.4 v 502.398 h -1606.4 z"
       style="fill:#cccccc;fill-opacity:1;fill-rule:nonzero;stroke:none"
       transform="matrix(0.13333333,0,0,-0.13333333,0,93.333333)"
       clip-path="url(#clipPath4)" />
    <path
       id="path5"
       d="M 147.602,561.199 V 159.281"
       style="fill:none;stroke:#000000;stroke-width:10;stroke-linecap:butt;stroke-linejoin:miter;stroke-miterlimit:10;stroke-dasharray:none;stroke-opacity:1"
       transform="matrix(0.13333333,0,0,-0.13333333,0,93.333333)"
       clip-path="url(#clipPath6)" />
    <path
       id="path7"
       d="m 147.602,159.281 24,72 -24,-18 -24,18 z"
       style="fill:#000000;fill-opacity:1;fill-rule:nonzero;stroke:none"
       transform="matrix(0.13333333,0,0,-0.13333333,0,93.333333)"
       clip-path="url(#clipPath8)" />
    <g
       inkscape:label=""
       transform="translate(189.84256,4.1353803)"
       id="g41">
      <g
         fill="#000000"
         fill-opacity="1"
         id="g5"
         transform="matrix(1.33333,0,0,1.33333,-3.21983,-2.63217)">
        <g
           id="use3"
           transform="translate(1.993,8.6459999)">
          <path
             d="m 3.3125,-0.75 c 0.046875,0.390625 0.3125,0.8125 0.78125,0.8125 0.21875,0 0.828125,-0.140625 0.828125,-0.953125 v -0.5625 h -0.25 v 0.5625 c 0,0.578125 -0.25,0.640625 -0.359375,0.640625 -0.328125,0 -0.375,-0.453125 -0.375,-0.5 v -1.984375 c 0,-0.421875 0,-0.8125 -0.359375,-1.1875 C 3.1875,-4.3125 2.6875,-4.46875 2.21875,-4.46875 c -0.828125,0 -1.515625,0.46875 -1.515625,1.125 0,0.296875 0.203125,0.46875 0.46875,0.46875 0.28125,0 0.453125,-0.203125 0.453125,-0.453125 0,-0.125 -0.046875,-0.453125 -0.515625,-0.453125 C 1.390625,-4.140625 1.875,-4.25 2.1875,-4.25 c 0.5,0 1.0625,0.390625 1.0625,1.28125 v 0.359375 c -0.515625,0.03125 -1.203125,0.0625 -1.828125,0.359375 -0.75,0.34375 -1,0.859375 -1,1.296875 0,0.8125 0.96875,1.0625 1.59375,1.0625 0.65625,0 1.109375,-0.40625 1.296875,-0.859375 z M 3.25,-2.390625 v 1 c 0,0.9375 -0.71875,1.28125 -1.171875,1.28125 -0.484375,0 -0.890625,-0.34375 -0.890625,-0.84375 0,-0.546875 0.421875,-1.375 2.0625,-1.4375 z m 0,0"
             id="path39" />
        </g>
        <g
           id="use4"
           transform="translate(6.9742999,8.6459999)">
          <path
             d="M 1.765625,-4.40625 0.375,-4.296875 v 0.3125 c 0.640625,0 0.734375,0.0625 0.734375,0.546875 V -0.75 c 0,0.4375 -0.109375,0.4375 -0.78125,0.4375 V 0 C 0.640625,-0.015625 1.1875,-0.03125 1.421875,-0.03125 1.78125,-0.03125 2.125,-0.015625 2.46875,0 v -0.3125 c -0.671875,0 -0.703125,-0.046875 -0.703125,-0.4375 z m 0.03125,-1.734375 c 0,-0.3125 -0.234375,-0.53125 -0.515625,-0.53125 -0.3125,0 -0.53125,0.265625 -0.53125,0.53125 0,0.265625 0.21875,0.53125 0.53125,0.53125 0.28125,0 0.515625,-0.21875 0.515625,-0.53125 z m 0,0"
             id="path40" />
        </g>
        <g
           id="use5"
           transform="translate(9.74191,8.6459999)">
          <path
             d="M 1.671875,-3.3125 V -4.40625 L 0.28125,-4.296875 v 0.3125 c 0.703125,0 0.78125,0.0625 0.78125,0.5625 V -0.75 c 0,0.4375 -0.109375,0.4375 -0.78125,0.4375 V 0 c 0.390625,-0.015625 0.859375,-0.03125 1.140625,-0.03125 0.390625,0 0.859375,0 1.265625,0.03125 V -0.3125 H 2.46875 c -0.734375,0 -0.75,-0.109375 -0.75,-0.46875 V -2.3125 c 0,-0.984375 0.421875,-1.875 1.171875,-1.875 0.0625,0 0.09375,0 0.109375,0.015625 -0.03125,0 -0.234375,0.125 -0.234375,0.390625 0,0.265625 0.21875,0.421875 0.4375,0.421875 0.171875,0 0.421875,-0.125 0.421875,-0.4375 0,-0.3125 -0.3125,-0.609375 -0.734375,-0.609375 -0.734375,0 -1.09375,0.671875 -1.21875,1.09375 z m 0,0"
             id="path41" />
        </g>
      </g>
    </g>
    <g
       inkscape:label=""
       transform="translate(182.97252,23.191421)"
       id="g46">
      <g
         fill="#000000"
         fill-opacity="1"
         id="g7"
         transform="matrix(1.33333,0,0,1.33333,-2.90733,-2.66)">
        <g
           id="g42"
           transform="translate(1.993,8.1199999)">
          <path
             d="m 1.71875,-3.984375 h 1.4375 v -0.3125 H 1.71875 V -6.125 h -0.25 c 0,0.8125 -0.296875,1.875 -1.28125,1.921875 v 0.21875 h 0.84375 v 2.75 c 0,1.21875 0.9375,1.34375 1.296875,1.34375 0.703125,0 0.984375,-0.703125 0.984375,-1.34375 v -0.5625 h -0.25 V -1.25 c 0,0.734375 -0.296875,1.109375 -0.671875,1.109375 -0.671875,0 -0.671875,-0.90625 -0.671875,-1.078125 z m 0,0"
             id="path42" />
        </g>
        <g
           id="g43"
           transform="translate(5.867455,8.1199999)">
          <path
             d="M 1.109375,-2.515625 C 1.171875,-4 2.015625,-4.25 2.359375,-4.25 c 1.015625,0 1.125,1.34375 1.125,1.734375 z m 0,0.21875 h 2.78125 c 0.21875,0 0.25,0 0.25,-0.21875 0,-0.984375 -0.546875,-1.953125 -1.78125,-1.953125 -1.15625,0 -2.078125,1.03125 -2.078125,2.28125 0,1.328125 1.046875,2.296875 2.1875,2.296875 C 3.6875,0.109375 4.140625,-1 4.140625,-1.1875 4.140625,-1.28125 4.0625,-1.3125 4,-1.3125 c -0.078125,0 -0.109375,0.0625 -0.125,0.140625 -0.34375,1.03125 -1.25,1.03125 -1.34375,1.03125 -0.5,0 -0.890625,-0.296875 -1.125,-0.671875 -0.296875,-0.46875 -0.296875,-1.125 -0.296875,-1.484375 z m 0,0"
             id="path43" />
        </g>
        <g
           id="g44"
           transform="translate(10.294835,8.1199999)">
          <path
             d="M 1.671875,-3.3125 V -4.40625 L 0.28125,-4.296875 v 0.3125 c 0.703125,0 0.78125,0.0625 0.78125,0.5625 V -0.75 c 0,0.4375 -0.109375,0.4375 -0.78125,0.4375 V 0 c 0.390625,-0.015625 0.859375,-0.03125 1.140625,-0.03125 0.390625,0 0.859375,0 1.265625,0.03125 V -0.3125 H 2.46875 c -0.734375,0 -0.75,-0.109375 -0.75,-0.46875 V -2.3125 c 0,-0.984375 0.421875,-1.875 1.171875,-1.875 0.0625,0 0.09375,0 0.109375,0.015625 -0.03125,0 -0.234375,0.125 -0.234375,0.390625 0,0.265625 0.21875,0.421875 0.4375,0.421875 0.171875,0 0.421875,-0.125 0.421875,-0.4375 0,-0.3125 -0.3125,-0.609375 -0.734375,-0.609375 -0.734375,0 -1.09375,0.671875 -1.21875,1.09375 z m 0,0"
             id="path44" />
        </g>
        <g
           id="use6"
           transform="translate(14.197185,8.1199999)">
          <path
             d="M 1.671875,-3.3125 V -4.40625 L 0.28125,-4.296875 v 0.3125 c 0.703125,0 0.78125,0.0625 0.78125,0.5625 V -0.75 c 0,0.4375 -0.109375,0.4375 -0.78125,0.4375 V 0 c 0.390625,-0.015625 0.859375,-0.03125 1.140625,-0.03125 0.390625,0 0.859375,0 1.265625,0.03125 V -0.3125 H 2.46875 c -0.734375,0 -0.75,-0.109375 -0.75,-0.46875 V -2.3125 c 0,-0.984375 0.421875,-1.875 1.171875,-1.875 0.0625,0 0.09375,0 0.109375,0.015625 -0.03125,0 -0.234375,0.125 -0.234375,0.390625 0,0.265625 0.21875,0.421875 0.4375,0.421875 0.171875,0 0.421875,-0.125 0.421875,-0.4375 0,-0.3125 -0.3125,-0.609375 -0.734375,-0.609375 -0.734375,0 -1.09375,0.671875 -1.21875,1.09375 z m 0,0"
             id="path45" />
        </g>
        <g
           id="use7"
           transform="translate(18.099535,8.1199999)">
          <path
             d="M 1.109375,-2.515625 C 1.171875,-4 2.015625,-4.25 2.359375,-4.25 c 1.015625,0 1.125,1.34375 1.125,1.734375 z m 0,0.21875 h 2.78125 c 0.21875,0 0.25,0 0.25,-0.21875 0,-0.984375 -0.546875,-1.953125 -1.78125,-1.953125 -1.15625,0 -2.078125,1.03125 -2.078125,2.28125 0,1.328125 1.046875,2.296875 2.1875,2.296875 C 3.6875,0.109375 4.140625,-1 4.140625,-1.1875 4.140625,-1.28125 4.0625,-1.3125 4,-1.3125 c -0.078125,0 -0.109375,0.0625 -0.125,0.140625 -0.34375,1.03125 -1.25,1.03125 -1.34375,1.03125 -0.5,0 -0.890625,-0.296875 -1.125,-0.671875 -0.296875,-0.46875 -0.296875,-1.125 -0.296875,-1.484375 z m 0,0"
             id="path46" />
        </g>
      </g>
    </g>
    <g
       inkscape:label=""
       transform="translate(82.938077,38.002418)"
       id="g54">
      <g
         fill="#000000"
         fill-opacity="1"
         id="g6"
         transform="matrix(1.33333,0,0,1.33333,-2.96983,-2.73333)">
        <g
           id="g47"
           transform="translate(1.993,8.8000002)">
          <path
             d="m 4.25,-6.046875 c 0.078125,-0.28125 0.109375,-0.34375 0.234375,-0.375 0.09375,-0.015625 0.421875,-0.015625 0.625,-0.015625 1.015625,0 1.453125,0.03125 1.453125,0.8125 0,0.15625 -0.03125,0.546875 -0.078125,0.796875 0,0.046875 -0.03125,0.15625 -0.03125,0.1875 0,0.0625 0.03125,0.140625 0.125,0.140625 0.109375,0 0.125,-0.078125 0.15625,-0.234375 L 7,-6.46875 C 7.015625,-6.515625 7.015625,-6.609375 7.015625,-6.640625 7.015625,-6.75 6.921875,-6.75 6.75,-6.75 H 1.21875 c -0.234375,0 -0.25,0.015625 -0.328125,0.203125 l -0.59375,1.75 c 0,0.015625 -0.0625,0.15625 -0.0625,0.1875 0,0.046875 0.0625,0.109375 0.125,0.109375 0.09375,0 0.109375,-0.0625 0.171875,-0.21875 C 1.0625,-6.265625 1.328125,-6.4375 2.796875,-6.4375 H 3.1875 c 0.28125,0 0.28125,0.03125 0.28125,0.125 0,0.046875 -0.03125,0.171875 -0.046875,0.203125 L 2.09375,-0.78125 C 2,-0.421875 1.96875,-0.3125 0.90625,-0.3125 c -0.359375,0 -0.421875,0 -0.421875,0.1875 C 0.484375,0 0.59375,0 0.65625,0 c 0.265625,0 0.546875,-0.015625 0.8125,-0.015625 0.28125,0 0.578125,-0.015625 0.859375,-0.015625 0.28125,0 0.546875,0.015625 0.828125,0.015625 C 3.4375,-0.015625 3.734375,0 4.015625,0 c 0.09375,0 0.21875,0 0.21875,-0.203125 0,-0.109375 -0.078125,-0.109375 -0.34375,-0.109375 -0.234375,0 -0.375,0 -0.625,-0.015625 -0.296875,-0.03125 -0.375,-0.0625 -0.375,-0.21875 0,-0.015625 0,-0.0625 0.046875,-0.203125 z m 0,0"
             id="path47" />
        </g>
      </g>
      <g
         fill="#000000"
         fill-opacity="1"
         id="g49"
         transform="matrix(1.33333,0,0,1.33333,-2.96983,-2.73333)">
        <g
           id="g48"
           transform="translate(7.8140001,10.294)">
          <path
             d="m 1.71875,-2.75 h 0.703125 c 0.140625,0 0.21875,0 0.21875,-0.15625 C 2.640625,-3 2.5625,-3 2.4375,-3 H 1.78125 l 0.25,-1.03125 C 2.046875,-4.0625 2.0625,-4.109375 2.0625,-4.125 c 0,-0.140625 -0.109375,-0.234375 -0.25,-0.234375 -0.171875,0 -0.265625,0.125 -0.328125,0.296875 C 1.4375,-3.875 1.53125,-4.21875 1.21875,-3 H 0.515625 c -0.125,0 -0.21875,0 -0.21875,0.15625 C 0.296875,-2.75 0.375,-2.75 0.5,-2.75 H 1.15625 L 0.75,-1.109375 C 0.703125,-0.9375 0.640625,-0.6875 0.640625,-0.59375 c 0,0.40625 0.359375,0.65625 0.75,0.65625 0.78125,0 1.21875,-0.96875 1.21875,-1.0625 0,-0.09375 -0.09375,-0.09375 -0.109375,-0.09375 -0.09375,0 -0.09375,0.015625 -0.15625,0.140625 -0.1875,0.4375 -0.546875,0.828125 -0.921875,0.828125 -0.15625,0 -0.25,-0.09375 -0.25,-0.34375 0,-0.0625 0.03125,-0.21875 0.046875,-0.28125 z m 0,0"
             id="path48" />
        </g>
      </g>
      <g
         fill="#000000"
         fill-opacity="1"
         id="g51"
         transform="matrix(1.33333,0,0,1.33333,-2.96983,-2.73333)">
        <g
           id="g50"
           transform="translate(14.089,8.8000002)">
          <path
             d="m 6.84375,-3.265625 c 0.15625,0 0.34375,0 0.34375,-0.1875 C 7.1875,-3.65625 7,-3.65625 6.859375,-3.65625 h -5.96875 c -0.140625,0 -0.328125,0 -0.328125,0.203125 0,0.1875 0.1875,0.1875 0.328125,0.1875 z m 0.015625,1.9375 c 0.140625,0 0.328125,0 0.328125,-0.203125 0,-0.1875 -0.1875,-0.1875 -0.34375,-0.1875 H 0.890625 c -0.140625,0 -0.328125,0 -0.328125,0.1875 0,0.203125 0.1875,0.203125 0.328125,0.203125 z m 0,0"
             id="path49" />
        </g>
      </g>
      <g
         fill="#000000"
         fill-opacity="1"
         id="g9"
         transform="matrix(1.33333,0,0,1.33333,-2.96983,-2.73333)">
        <g
           id="use8"
           transform="translate(24.606001,8.8000002)">
          <path
             d="m 4.75,-2.359375 c 0,-1.5625 -0.921875,-2.046875 -1.65625,-2.046875 -1.375,0 -2.6875,1.421875 -2.6875,2.828125 0,0.9375 0.59375,1.6875 1.625,1.6875 0.625,0 1.34375,-0.234375 2.09375,-0.84375 0.125,0.53125 0.453125,0.84375 0.90625,0.84375 0.53125,0 0.84375,-0.546875 0.84375,-0.703125 0,-0.078125 -0.0625,-0.109375 -0.125,-0.109375 -0.0625,0 -0.09375,0.03125 -0.125,0.109375 -0.1875,0.484375 -0.546875,0.484375 -0.5625,0.484375 -0.3125,0 -0.3125,-0.78125 -0.3125,-1.015625 0,-0.203125 0,-0.234375 0.109375,-0.34375 C 5.796875,-2.65625 6,-3.8125 6,-3.8125 6,-3.84375 5.984375,-3.921875 5.875,-3.921875 c -0.09375,0 -0.09375,0.03125 -0.140625,0.21875 -0.1875,0.625 -0.515625,1.375 -0.984375,1.96875 z m -0.65625,1.375 c -0.890625,0.765625 -1.65625,0.875 -2.046875,0.875 -0.59375,0 -0.90625,-0.453125 -0.90625,-1.09375 0,-0.484375 0.265625,-1.5625 0.578125,-2.0625 C 2.1875,-4 2.734375,-4.1875 3.078125,-4.1875 c 0.984375,0 0.984375,1.3125 0.984375,2.078125 0,0.375 0,0.953125 0.03125,1.125 z m 0,0"
             id="path51" />
        </g>
      </g>
      <g
         fill="#000000"
         fill-opacity="1"
         id="g10"
         transform="matrix(1.33333,0,0,1.33333,-2.96983,-2.73333)">
        <g
           id="use9"
           transform="translate(31.018927,8.8000002)">
          <path
             d="m 4.25,-6.046875 c 0.078125,-0.28125 0.109375,-0.34375 0.234375,-0.375 0.09375,-0.015625 0.421875,-0.015625 0.625,-0.015625 1.015625,0 1.453125,0.03125 1.453125,0.8125 0,0.15625 -0.03125,0.546875 -0.078125,0.796875 0,0.046875 -0.03125,0.15625 -0.03125,0.1875 0,0.0625 0.03125,0.140625 0.125,0.140625 0.109375,0 0.125,-0.078125 0.15625,-0.234375 L 7,-6.46875 C 7.015625,-6.515625 7.015625,-6.609375 7.015625,-6.640625 7.015625,-6.75 6.921875,-6.75 6.75,-6.75 H 1.21875 c -0.234375,0 -0.25,0.015625 -0.328125,0.203125 l -0.59375,1.75 c 0,0.015625 -0.0625,0.15625 -0.0625,0.1875 0,0.046875 0.0625,0.109375 0.125,0.109375 0.09375,0 0.109375,-0.0625 0.171875,-0.21875 C 1.0625,-6.265625 1.328125,-6.4375 2.796875,-6.4375 H 3.1875 c 0.28125,0 0.28125,0.03125 0.28125,0.125 0,0.046875 -0.03125,0.171875 -0.046875,0.203125 L 2.09375,-0.78125 C 2,-0.421875 1.96875,-0.3125 0.90625,-0.3125 c -0.359375,0 -0.421875,0 -0.421875,0.1875 C 0.484375,0 0.59375,0 0.65625,0 c 0.265625,0 0.546875,-0.015625 0.8125,-0.015625 0.28125,0 0.578125,-0.015625 0.859375,-0.015625 0.28125,0 0.546875,0.015625 0.828125,0.015625 C 3.4375,-0.015625 3.734375,0 4.015625,0 c 0.09375,0 0.21875,0 0.21875,-0.203125 0,-0.109375 -0.078125,-0.109375 -0.34375,-0.109375 -0.234375,0 -0.375,0 -0.625,-0.015625 -0.296875,-0.03125 -0.375,-0.0625 -0.375,-0.21875 0,-0.015625 0,-0.0625 0.046875,-0.203125 z m 0,0"
             id="path52" />
        </g>
      </g>
      <g
         fill="#000000"
         fill-opacity="1"
         id="g11"
         transform="matrix(1.33333,0,0,1.33333,-2.96983,-2.73333)">
        <g
           id="use10"
           transform="translate(36.837002,10.294)">
          <path
             d="m 1.171875,-0.609375 c 0.1875,-0.1875 0.3125,-0.3125 0.890625,-0.796875 0.15625,-0.109375 0.671875,-0.53125 0.875,-0.71875 0.421875,-0.421875 0.6875,-0.78125 0.6875,-0.859375 0,-0.09375 -0.078125,-0.09375 -0.109375,-0.09375 -0.0625,0 -0.09375,0.015625 -0.125,0.078125 -0.21875,0.3125 -0.359375,0.421875 -0.53125,0.421875 -0.078125,0 -0.1875,0 -0.390625,-0.203125 -0.234375,-0.25 -0.390625,-0.296875 -0.546875,-0.296875 -0.5625,0 -0.9375,0.609375 -0.9375,0.8125 0,0.078125 0.0625,0.09375 0.109375,0.09375 0.09375,0 0.109375,-0.015625 0.125,-0.09375 0.109375,-0.25 0.5,-0.265625 0.609375,-0.265625 0.171875,0 0.34375,0.046875 0.4375,0.0625 0.390625,0.078125 0.4375,0.078125 0.609375,0.078125 -0.171875,0.203125 -0.296875,0.328125 -0.96875,0.84375 -0.546875,0.4375 -0.734375,0.609375 -0.859375,0.75 -0.421875,0.40625 -0.625,0.71875 -0.625,0.78125 0,0.078125 0.09375,0.078125 0.125,0.078125 0.0625,0 0.078125,0 0.109375,-0.0625 0.1875,-0.265625 0.40625,-0.421875 0.640625,-0.421875 0.09375,0 0.1875,0 0.375,0.171875 0.21875,0.21875 0.359375,0.3125 0.59375,0.3125 C 3,0.0625 3.46875,-0.78125 3.46875,-1.015625 3.46875,-1.09375 3.390625,-1.09375 3.359375,-1.09375 3.265625,-1.09375 3.25,-1.0625 3.21875,-0.984375 3.09375,-0.640625 2.6875,-0.46875 2.34375,-0.46875 2.1875,-0.46875 2,-0.515625 1.828125,-0.546875 1.515625,-0.625 1.453125,-0.625 1.328125,-0.625 c -0.015625,0 -0.109375,0 -0.15625,0.015625 z m 0,0"
             id="path53" />
        </g>
      </g>
      <g
         fill="#000000"
         fill-opacity="1"
         id="g12"
         transform="matrix(1.33333,0,0,1.33333,-2.96983,-2.73333)">
        <g
           id="use11"
           transform="translate(40.929226,10.294)">
          <path
             d="m 1.171875,-0.609375 c 0.1875,-0.1875 0.3125,-0.3125 0.890625,-0.796875 0.15625,-0.109375 0.671875,-0.53125 0.875,-0.71875 0.421875,-0.421875 0.6875,-0.78125 0.6875,-0.859375 0,-0.09375 -0.078125,-0.09375 -0.109375,-0.09375 -0.0625,0 -0.09375,0.015625 -0.125,0.078125 -0.21875,0.3125 -0.359375,0.421875 -0.53125,0.421875 -0.078125,0 -0.1875,0 -0.390625,-0.203125 -0.234375,-0.25 -0.390625,-0.296875 -0.546875,-0.296875 -0.5625,0 -0.9375,0.609375 -0.9375,0.8125 0,0.078125 0.0625,0.09375 0.109375,0.09375 0.09375,0 0.109375,-0.015625 0.125,-0.09375 0.109375,-0.25 0.5,-0.265625 0.609375,-0.265625 0.171875,0 0.34375,0.046875 0.4375,0.0625 0.390625,0.078125 0.4375,0.078125 0.609375,0.078125 -0.171875,0.203125 -0.296875,0.328125 -0.96875,0.84375 -0.546875,0.4375 -0.734375,0.609375 -0.859375,0.75 -0.421875,0.40625 -0.625,0.71875 -0.625,0.78125 0,0.078125 0.09375,0.078125 0.125,0.078125 0.0625,0 0.078125,0 0.109375,-0.0625 0.1875,-0.265625 0.40625,-0.421875 0.640625,-0.421875 0.09375,0 0.1875,0 0.375,0.171875 0.21875,0.21875 0.359375,0.3125 0.59375,0.3125 C 3,0.0625 3.46875,-0.78125 3.46875,-1.015625 3.46875,-1.09375 3.390625,-1.09375 3.359375,-1.09375 3.265625,-1.09375 3.25,-1.0625 3.21875,-0.984375 3.09375,-0.640625 2.6875,-0.46875 2.34375,-0.46875 2.1875,-0.46875 2,-0.515625 1.828125,-0.546875 1.515625,-0.625 1.453125,-0.625 1.328125,-0.625 c -0.015625,0 -0.109375,0 -0.15625,0.015625 z m 0,0"
             id="path54" />
        </g>
      </g>
    </g>
    <g
       inkscape:label=""
       transform="translate(25.693201,69.473944)"
       id="g55">
      <g
         fill="#000000"
         fill-opacity="1"
         id="g2"
         transform="matrix(1.33333,0,0,1.33333,-3.21983,-2.501)">
        <g
           id="use1"
           transform="translate(1.993,6.2820001)">
          <path
             d="m 1.328125,-0.828125 c 0.53125,-0.578125 0.828125,-0.828125 1.1875,-1.140625 0,0 0.609375,-0.53125 0.96875,-0.890625 C 4.4375,-3.78125 4.65625,-4.265625 4.65625,-4.3125 c 0,-0.09375 -0.09375,-0.09375 -0.109375,-0.09375 -0.078125,0 -0.09375,0.015625 -0.15625,0.109375 -0.296875,0.484375 -0.5,0.640625 -0.734375,0.640625 -0.25,0 -0.359375,-0.15625 -0.515625,-0.328125 -0.1875,-0.21875 -0.359375,-0.421875 -0.6875,-0.421875 -0.75,0 -1.203125,0.921875 -1.203125,1.140625 0,0.046875 0.03125,0.109375 0.109375,0.109375 0.09375,0 0.109375,-0.046875 0.140625,-0.109375 0.1875,-0.46875 0.765625,-0.46875 0.84375,-0.46875 0.203125,0 0.390625,0.0625 0.625,0.140625 0.40625,0.15625 0.515625,0.15625 0.765625,0.15625 -0.359375,0.421875 -1.1875,1.140625 -1.375,1.296875 l -0.90625,0.84375 C 0.78125,-0.625 0.421875,-0.0625 0.421875,0.015625 c 0,0.09375 0.109375,0.09375 0.125,0.09375 0.078125,0 0.09375,-0.015625 0.15625,-0.125 0.234375,-0.359375 0.53125,-0.625 0.859375,-0.625 0.21875,0 0.328125,0.09375 0.578125,0.375 0.15625,0.21875 0.34375,0.375 0.625,0.375 1,0 1.578125,-1.265625 1.578125,-1.53125 0,-0.046875 -0.046875,-0.109375 -0.125,-0.109375 -0.09375,0 -0.109375,0.0625 -0.140625,0.140625 C 3.84375,-0.75 3.203125,-0.5625 2.875,-0.5625 c -0.1875,0 -0.375,-0.0625 -0.578125,-0.125 -0.34375,-0.125 -0.5,-0.171875 -0.703125,-0.171875 -0.015625,0 -0.171875,0 -0.265625,0.03125 z m 0,0"
             id="path55" />
        </g>
      </g>
    </g>
    <g
       inkscape:label=""
       transform="translate(223.6384,8.5629501)"
       id="g99">
      <g
         fill="#000000"
         fill-opacity="1"
         id="g18"
         transform="matrix(1.33333,0,0,1.33333,-3.34483,-2.65367)">
        <g
           id="use17"
           transform="translate(1.993,10.959)">
          <path
             d="m 1.515625,-0.96875 c 0.515625,-0.578125 0.9375,-0.953125 1.53125,-1.5 C 3.765625,-3.078125 4.078125,-3.375 4.25,-3.5625 5.078125,-4.390625 5.5,-5.078125 5.5,-5.171875 c 0,-0.09375 -0.09375,-0.09375 -0.125,-0.09375 -0.078125,0 -0.109375,0.046875 -0.15625,0.125 C 4.90625,-4.625 4.625,-4.375 4.3125,-4.375 c -0.25,0 -0.375,-0.109375 -0.609375,-0.390625 -0.25,-0.296875 -0.453125,-0.5 -0.796875,-0.5 -0.875,0 -1.40625,1.078125 -1.40625,1.328125 0,0.046875 0.015625,0.109375 0.125,0.109375 0.09375,0 0.109375,-0.046875 0.140625,-0.125 0.203125,-0.484375 0.78125,-0.5625 1,-0.5625 0.265625,0 0.5,0.078125 0.75,0.1875 0.453125,0.1875 0.640625,0.1875 0.765625,0.1875 0.078125,0 0.125,0 0.1875,0 C 4.078125,-3.6875 3.4375,-3.109375 2.890625,-2.625 L 1.6875,-1.5 c -0.734375,0.734375 -1.171875,1.4375 -1.171875,1.53125 0,0.0625 0.0625,0.09375 0.125,0.09375 0.078125,0 0.09375,-0.015625 0.171875,-0.15625 0.1875,-0.296875 0.578125,-0.75 1.015625,-0.75 0.25,0 0.375,0.09375 0.609375,0.390625 C 2.671875,-0.125 2.875,0.125 3.25,0.125 c 1.171875,0 1.84375,-1.53125 1.84375,-1.796875 0,-0.046875 -0.015625,-0.125 -0.140625,-0.125 -0.09375,0 -0.09375,0.046875 -0.140625,0.171875 -0.265625,0.703125 -0.96875,0.984375 -1.4375,0.984375 -0.25,0 -0.484375,-0.078125 -0.734375,-0.1875 -0.484375,-0.1875 -0.609375,-0.1875 -0.765625,-0.1875 -0.125,0 -0.25,0 -0.359375,0.046875 z m 0,0"
             id="path88" />
        </g>
      </g>
      <g
         fill="#000000"
         fill-opacity="1"
         id="g19"
         transform="matrix(1.33333,0,0,1.33333,-3.34483,-2.65367)">
        <g
           id="use18"
           transform="translate(11.284,10.959)">
          <path
             d="m 8.0625,-3.875 c 0.171875,0 0.390625,0 0.390625,-0.21875 C 8.453125,-4.3125 8.25,-4.3125 8.0625,-4.3125 H 1.03125 c -0.171875,0 -0.390625,0 -0.390625,0.21875 0,0.21875 0.203125,0.21875 0.390625,0.21875 z m 0,2.21875 c 0.171875,0 0.390625,0 0.390625,-0.203125 C 8.453125,-2.09375 8.25,-2.09375 8.0625,-2.09375 H 1.03125 c -0.171875,0 -0.390625,0 -0.390625,0.21875 0,0.21875 0.203125,0.21875 0.390625,0.21875 z m 0,0"
             id="path50" />
        </g>
      </g>
      <g
         fill="#000000"
         fill-opacity="1"
         id="g20"
         transform="matrix(1.33333,0,0,1.33333,-3.34483,-2.65367)">
        <g
           id="use19"
           transform="translate(23.712626,10.959)">
          <path
             d="m 5.359375,-3.828125 c 0,-0.984375 -0.0625,-1.953125 -0.5,-2.859375 -0.484375,-1 -1.34375,-1.265625 -1.9375,-1.265625 -0.6875,0 -1.53125,0.34375 -1.984375,1.34375 -0.328125,0.75 -0.453125,1.5 -0.453125,2.78125 0,1.15625 0.09375,2.03125 0.515625,2.890625 0.46875,0.90625 1.296875,1.1875 1.921875,1.1875 1.03125,0 1.625,-0.625 1.984375,-1.3125 0.421875,-0.890625 0.453125,-2.0625 0.453125,-2.765625 z m -2.4375,3.84375 C 2.53125,0.015625 1.75,-0.203125 1.53125,-1.5 c -0.125,-0.71875 -0.125,-1.625 -0.125,-2.46875 0,-0.984375 0,-1.859375 0.1875,-2.5625 0.203125,-0.8125 0.8125,-1.171875 1.328125,-1.171875 0.453125,0 1.140625,0.265625 1.375,1.296875 0.15625,0.6875 0.15625,1.625 0.15625,2.4375 0,0.796875 0,1.703125 -0.140625,2.4375 -0.21875,1.3125 -0.984375,1.546875 -1.390625,1.546875 z m 0,0"
             id="path89" />
        </g>
      </g>
      <g
         fill="#000000"
         fill-opacity="1"
         id="g21"
         transform="matrix(1.33333,0,0,1.33333,-3.34483,-2.65367)">
        <g
           id="use20"
           transform="translate(29.562,10.959)">
          <path
             d="m 2.328125,0.046875 c 0,-0.6875 -0.21875,-1.203125 -0.71875,-1.203125 -0.375,0 -0.5625,0.3125 -0.5625,0.578125 C 1.046875,-0.328125 1.21875,0 1.625,0 1.78125,0 1.90625,-0.046875 2.015625,-0.15625 2.046875,-0.171875 2.0625,-0.171875 2.0625,-0.171875 c 0.03125,0 0.03125,0.15625 0.03125,0.21875 C 2.09375,0.4375 2.015625,1.21875 1.328125,2 1.1875,2.140625 1.1875,2.15625 1.1875,2.1875 c 0,0.0625 0.0625,0.125 0.125,0.125 0.09375,0 1.015625,-0.890625 1.015625,-2.265625 z m 0,0"
             id="path90" />
        </g>
      </g>
      <g
         fill="#000000"
         fill-opacity="1"
         id="g22"
         transform="matrix(1.33333,0,0,1.33333,-3.34483,-2.65367)">
        <g
           id="use21"
           transform="translate(34.810333,10.959)">
          <path
             d="M 4.984375,-7.296875 C 5.0625,-7.578125 5.078125,-7.6875 5.265625,-7.734375 5.359375,-7.75 5.75,-7.75 6,-7.75 c 1.203125,0 1.75,0.046875 1.75,0.96875 0,0.1875 -0.046875,0.640625 -0.109375,1.078125 L 7.625,-5.5625 c 0,0.046875 0.046875,0.125 0.125,0.125 0.109375,0 0.109375,-0.0625 0.15625,-0.25 L 8.25,-7.8125 c 0.015625,-0.09375 0.015625,-0.125 0.015625,-0.15625 0,-0.140625 -0.0625,-0.140625 -0.3125,-0.140625 h -6.53125 c -0.28125,0 -0.28125,0.015625 -0.359375,0.234375 l -0.734375,2.15625 c 0,0.015625 -0.046875,0.15625 -0.046875,0.15625 0,0.0625 0.046875,0.125 0.125,0.125 0.09375,0 0.125,-0.046875 0.171875,-0.203125 0.5,-1.453125 0.75,-2.109375 2.34375,-2.109375 H 3.71875 c 0.28125,0 0.40625,0 0.40625,0.125 0,0.03125 0,0.0625 -0.0625,0.28125 L 2.46875,-0.9375 c -0.125,0.46875 -0.15625,0.59375 -1.421875,0.59375 -0.296875,0 -0.375,0 -0.375,0.21875 0,0.125 0.125,0.125 0.1875,0.125 0.296875,0 0.609375,-0.03125 0.90625,-0.03125 h 1.875 C 3.9375,-0.03125 4.25,0 4.546875,0 4.6875,0 4.8125,0 4.8125,-0.234375 c 0,-0.109375 -0.09375,-0.109375 -0.40625,-0.109375 -1.078125,0 -1.078125,-0.109375 -1.078125,-0.296875 0,0 0,-0.09375 0.046875,-0.28125 z m 0,0"
             id="path91" />
        </g>
      </g>
      <g
         fill="#000000"
         fill-opacity="1"
         id="g23"
         transform="matrix(1.33333,0,0,1.33333,-3.34483,-2.65367)">
        <g
           id="use22"
           transform="translate(43.292999,10.959)">
          <path
             d="m 3.890625,2.90625 c 0,-0.03125 0,-0.0625 -0.203125,-0.265625 C 2.484375,1.4375 1.8125,-0.53125 1.8125,-2.96875 c 0,-2.328125 0.5625,-4.328125 1.953125,-5.734375 0.125,-0.109375 0.125,-0.125 0.125,-0.171875 0,-0.0625 -0.0625,-0.09375 -0.109375,-0.09375 -0.15625,0 -1.140625,0.859375 -1.71875,2.03125 -0.609375,1.21875 -0.890625,2.484375 -0.890625,3.96875 0,1.0625 0.171875,2.484375 0.78125,3.75 C 2.671875,2.21875 3.640625,3 3.78125,3 3.828125,3 3.890625,2.96875 3.890625,2.90625 Z m 0,0"
             id="path92" />
        </g>
        <g
           id="use23"
           transform="translate(47.845539,10.959)">
          <path
             d="m 5.359375,-3.828125 c 0,-0.984375 -0.0625,-1.953125 -0.5,-2.859375 -0.484375,-1 -1.34375,-1.265625 -1.9375,-1.265625 -0.6875,0 -1.53125,0.34375 -1.984375,1.34375 -0.328125,0.75 -0.453125,1.5 -0.453125,2.78125 0,1.15625 0.09375,2.03125 0.515625,2.890625 0.46875,0.90625 1.296875,1.1875 1.921875,1.1875 1.03125,0 1.625,-0.625 1.984375,-1.3125 0.421875,-0.890625 0.453125,-2.0625 0.453125,-2.765625 z m -2.4375,3.84375 C 2.53125,0.015625 1.75,-0.203125 1.53125,-1.5 c -0.125,-0.71875 -0.125,-1.625 -0.125,-2.46875 0,-0.984375 0,-1.859375 0.1875,-2.5625 0.203125,-0.8125 0.8125,-1.171875 1.328125,-1.171875 0.453125,0 1.140625,0.265625 1.375,1.296875 0.15625,0.6875 0.15625,1.625 0.15625,2.4375 0,0.796875 0,1.703125 -0.140625,2.4375 -0.21875,1.3125 -0.984375,1.546875 -1.390625,1.546875 z m 0,0"
             id="path93" />
        </g>
      </g>
      <g
         fill="#000000"
         fill-opacity="1"
         id="g24"
         transform="matrix(1.33333,0,0,1.33333,-3.34483,-2.65367)">
        <g
           id="use24"
           transform="translate(53.699001,10.959)">
          <path
             d="m 2.328125,0.046875 c 0,-0.6875 -0.21875,-1.203125 -0.71875,-1.203125 -0.375,0 -0.5625,0.3125 -0.5625,0.578125 C 1.046875,-0.328125 1.21875,0 1.625,0 1.78125,0 1.90625,-0.046875 2.015625,-0.15625 2.046875,-0.171875 2.0625,-0.171875 2.0625,-0.171875 c 0.03125,0 0.03125,0.15625 0.03125,0.21875 C 2.09375,0.4375 2.015625,1.21875 1.328125,2 1.1875,2.140625 1.1875,2.15625 1.1875,2.1875 c 0,0.0625 0.0625,0.125 0.125,0.125 0.09375,0 1.015625,-0.890625 1.015625,-2.265625 z m 0,0"
             id="path56" />
        </g>
      </g>
      <g
         fill="#000000"
         fill-opacity="1"
         id="g25"
         transform="matrix(1.33333,0,0,1.33333,-3.34483,-2.65367)">
        <g
           id="use25"
           transform="translate(58.947334,10.959)">
          <path
             d="M 2.40625,-4.8125 H 3.5 c 0.234375,0 0.34375,0 0.34375,-0.203125 0,-0.140625 -0.0625,-0.140625 -0.3125,-0.140625 H 2.484375 l 0.4375,-1.734375 C 2.96875,-7.0625 2.96875,-7.09375 2.96875,-7.171875 c 0,-0.1875 -0.140625,-0.296875 -0.296875,-0.296875 -0.109375,0 -0.375,0.03125 -0.46875,0.421875 l -0.46875,1.890625 h -1.125 c -0.234375,0 -0.34375,0 -0.34375,0.234375 0,0.109375 0.078125,0.109375 0.3125,0.109375 h 1.0625 L 0.84375,-1.65625 c -0.09375,0.421875 -0.125,0.546875 -0.125,0.703125 0,0.5625 0.390625,1.078125 1.0625,1.078125 1.203125,0 1.859375,-1.75 1.859375,-1.828125 0,-0.078125 -0.0625,-0.109375 -0.125,-0.109375 -0.03125,0 -0.078125,0 -0.09375,0.046875 C 3.40625,-1.75 3.390625,-1.75 3.3125,-1.546875 c -0.25,0.59375 -0.796875,1.421875 -1.5,1.421875 -0.359375,0 -0.375,-0.296875 -0.375,-0.5625 0,0 0,-0.234375 0.03125,-0.375 z m 0,0"
             id="path57" />
        </g>
      </g>
      <g
         fill="#000000"
         fill-opacity="1"
         id="g26"
         transform="matrix(1.33333,0,0,1.33333,-3.34483,-2.65367)">
        <g
           id="use26"
           transform="translate(63.169998,10.959)">
          <path
             d="M 3.375,-2.96875 C 3.375,-3.890625 3.25,-5.359375 2.578125,-6.75 1.875,-8.1875 0.890625,-8.96875 0.765625,-8.96875 c -0.046875,0 -0.109375,0.03125 -0.109375,0.09375 0,0.046875 0,0.0625 0.203125,0.265625 1.203125,1.203125 1.859375,3.1875 1.859375,5.625 0,2.3125 -0.5625,4.3125 -1.9375,5.71875 C 0.65625,2.84375 0.65625,2.875 0.65625,2.90625 0.65625,2.96875 0.71875,3 0.765625,3 0.921875,3 1.90625,2.140625 2.484375,0.96875 3.09375,-0.25 3.375,-1.546875 3.375,-2.96875 Z m 0,0"
             id="path58" />
        </g>
      </g>
      <g
         fill="#000000"
         fill-opacity="1"
         id="g27"
         transform="matrix(1.33333,0,0,1.33333,-3.34483,-2.65367)">
        <g
           id="use27"
           transform="translate(71.046089,10.959)">
          <path
             d="m 8.0625,-3.875 c 0.171875,0 0.390625,0 0.390625,-0.21875 C 8.453125,-4.3125 8.25,-4.3125 8.0625,-4.3125 H 1.03125 c -0.171875,0 -0.390625,0 -0.390625,0.21875 0,0.21875 0.203125,0.21875 0.390625,0.21875 z m 0,2.21875 c 0.171875,0 0.390625,0 0.390625,-0.203125 C 8.453125,-2.09375 8.25,-2.09375 8.0625,-2.09375 H 1.03125 c -0.171875,0 -0.390625,0 -0.390625,0.21875 0,0.21875 0.203125,0.21875 0.390625,0.21875 z m 0,0"
             id="path59" />
        </g>
      </g>
      <g
         fill="#000000"
         fill-opacity="1"
         id="g28"
         transform="matrix(1.33333,0,0,1.33333,-3.34483,-2.65367)">
        <g
           id="use28"
           transform="translate(83.469002,10.959)">
          <path
             d="M 4.984375,-7.296875 C 5.0625,-7.578125 5.078125,-7.6875 5.265625,-7.734375 5.359375,-7.75 5.75,-7.75 6,-7.75 c 1.203125,0 1.75,0.046875 1.75,0.96875 0,0.1875 -0.046875,0.640625 -0.109375,1.078125 L 7.625,-5.5625 c 0,0.046875 0.046875,0.125 0.125,0.125 0.109375,0 0.109375,-0.0625 0.15625,-0.25 L 8.25,-7.8125 c 0.015625,-0.09375 0.015625,-0.125 0.015625,-0.15625 0,-0.140625 -0.0625,-0.140625 -0.3125,-0.140625 h -6.53125 c -0.28125,0 -0.28125,0.015625 -0.359375,0.234375 l -0.734375,2.15625 c 0,0.015625 -0.046875,0.15625 -0.046875,0.15625 0,0.0625 0.046875,0.125 0.125,0.125 0.09375,0 0.125,-0.046875 0.171875,-0.203125 0.5,-1.453125 0.75,-2.109375 2.34375,-2.109375 H 3.71875 c 0.28125,0 0.40625,0 0.40625,0.125 0,0.03125 0,0.0625 -0.0625,0.28125 L 2.46875,-0.9375 c -0.125,0.46875 -0.15625,0.59375 -1.421875,0.59375 -0.296875,0 -0.375,0 -0.375,0.21875 0,0.125 0.125,0.125 0.1875,0.125 0.296875,0 0.609375,-0.03125 0.90625,-0.03125 h 1.875 C 3.9375,-0.03125 4.25,0 4.546875,0 4.6875,0 4.8125,0 4.8125,-0.234375 c 0,-0.109375 -0.09375,-0.109375 -0.40625,-0.109375 -1.078125,0 -1.078125,-0.109375 -1.078125,-0.296875 0,0 0,-0.09375 0.046875,-0.28125 z m 0,0"
             id="path60" />
        </g>
      </g>
      <g
         fill="#000000"
         fill-opacity="1"
         id="g29"
         transform="matrix(1.33333,0,0,1.33333,-3.34483,-2.65367)">
        <g
           id="use29"
           transform="translate(90.330002,12.752)">
          <path
             d="m 3.890625,-2.546875 c 0,-0.84375 -0.078125,-1.359375 -0.34375,-1.875 -0.34375,-0.703125 -1,-0.875 -1.4375,-0.875 -1,0 -1.375,0.75 -1.484375,0.96875 -0.28125,0.578125 -0.296875,1.375 -0.296875,1.78125 0,0.53125 0.015625,1.328125 0.40625,1.96875 0.359375,0.59375 0.953125,0.75 1.375,0.75 0.390625,0 1.0625,-0.125 1.46875,-0.90625 0.296875,-0.578125 0.3125,-1.296875 0.3125,-1.8125 z M 2.109375,-0.0625 C 1.84375,-0.0625 1.296875,-0.1875 1.125,-1.015625 1.03125,-1.46875 1.03125,-2.21875 1.03125,-2.640625 1.03125,-3.1875 1.03125,-3.75 1.125,-4.1875 1.296875,-5 1.90625,-5.078125 2.109375,-5.078125 c 0.265625,0 0.828125,0.140625 0.984375,0.859375 0.09375,0.4375 0.09375,1.046875 0.09375,1.578125 0,0.46875 0,1.1875 -0.09375,1.640625 -0.171875,0.828125 -0.71875,0.9375 -0.984375,0.9375 z m 0,0"
             id="path61" />
        </g>
      </g>
      <g
         fill="#000000"
         fill-opacity="1"
         id="g30"
         transform="matrix(1.33333,0,0,1.33333,-3.34483,-2.65367)">
        <g
           id="use30"
           transform="translate(97.719002,10.959)">
          <path
             d="M 4.765625,-2.765625 H 8.0625 c 0.171875,0 0.390625,0 0.390625,-0.203125 0,-0.234375 -0.203125,-0.234375 -0.390625,-0.234375 H 4.765625 V -6.5 c 0,-0.171875 0,-0.390625 -0.21875,-0.390625 -0.21875,0 -0.21875,0.203125 -0.21875,0.390625 v 3.296875 H 1.03125 c -0.171875,0 -0.390625,0 -0.390625,0.21875 0,0.21875 0.203125,0.21875 0.390625,0.21875 H 4.328125 V 0.53125 c 0,0.171875 0,0.390625 0.21875,0.390625 0.21875,0 0.21875,-0.203125 0.21875,-0.390625 z m 0,0"
             id="path62" />
        </g>
      </g>
      <g
         fill="#000000"
         fill-opacity="1"
         id="g31"
         transform="matrix(1.33333,0,0,1.33333,-3.34483,-2.65367)">
        <g
           id="use31"
           transform="translate(109.48,10.959)">
          <path
             d="M 4.984375,-7.296875 C 5.0625,-7.578125 5.078125,-7.6875 5.265625,-7.734375 5.359375,-7.75 5.75,-7.75 6,-7.75 c 1.203125,0 1.75,0.046875 1.75,0.96875 0,0.1875 -0.046875,0.640625 -0.109375,1.078125 L 7.625,-5.5625 c 0,0.046875 0.046875,0.125 0.125,0.125 0.109375,0 0.109375,-0.0625 0.15625,-0.25 L 8.25,-7.8125 c 0.015625,-0.09375 0.015625,-0.125 0.015625,-0.15625 0,-0.140625 -0.0625,-0.140625 -0.3125,-0.140625 h -6.53125 c -0.28125,0 -0.28125,0.015625 -0.359375,0.234375 l -0.734375,2.15625 c 0,0.015625 -0.046875,0.15625 -0.046875,0.15625 0,0.0625 0.046875,0.125 0.125,0.125 0.09375,0 0.125,-0.046875 0.171875,-0.203125 0.5,-1.453125 0.75,-2.109375 2.34375,-2.109375 H 3.71875 c 0.28125,0 0.40625,0 0.40625,0.125 0,0.03125 0,0.0625 -0.0625,0.28125 L 2.46875,-0.9375 c -0.125,0.46875 -0.15625,0.59375 -1.421875,0.59375 -0.296875,0 -0.375,0 -0.375,0.21875 0,0.125 0.125,0.125 0.1875,0.125 0.296875,0 0.609375,-0.03125 0.90625,-0.03125 h 1.875 C 3.9375,-0.03125 4.25,0 4.546875,0 4.6875,0 4.8125,0 4.8125,-0.234375 c 0,-0.109375 -0.09375,-0.109375 -0.40625,-0.109375 -1.078125,0 -1.078125,-0.109375 -1.078125,-0.296875 0,0 0,-0.09375 0.046875,-0.28125 z m 0,0"
             id="path63" />
        </g>
      </g>
      <g
         fill="#000000"
         fill-opacity="1"
         id="g32"
         transform="matrix(1.33333,0,0,1.33333,-3.34483,-2.65367)">
        <g
           id="use32"
           transform="translate(116.341,12.752)">
          <path
             d="M 1.46875,-0.953125 C 1.109375,-0.359375 0.78125,-0.28125 0.5,-0.265625 0.421875,-0.25 0.3125,-0.25 0.3125,-0.109375 0.3125,-0.09375 0.328125,0 0.4375,0 0.5,0 0.546875,-0.03125 1.109375,-0.03125 1.65625,-0.03125 1.828125,0 1.875,0 c 0.03125,0 0.15625,0 0.15625,-0.15625 0,-0.09375 -0.109375,-0.109375 -0.140625,-0.109375 -0.171875,0 -0.34375,-0.0625 -0.34375,-0.25 0,-0.109375 0.078125,-0.21875 0.21875,-0.453125 L 2.3125,-1.84375 H 4.5 L 4.65625,-0.5 c 0,0.125 -0.140625,0.234375 -0.515625,0.234375 -0.109375,0 -0.21875,0 -0.21875,0.15625 0,0 0,0.109375 0.140625,0.109375 0.078125,0 0.375,-0.015625 0.453125,-0.03125 h 0.5 C 5.734375,-0.03125 5.859375,0 5.921875,0 5.953125,0 6.09375,0 6.09375,-0.15625 c 0,-0.109375 -0.109375,-0.109375 -0.234375,-0.109375 -0.4375,0 -0.453125,-0.0625 -0.46875,-0.265625 L 4.75,-5.453125 C 4.734375,-5.640625 4.71875,-5.6875 4.59375,-5.6875 c -0.140625,0 -0.1875,0.078125 -0.25,0.15625 z M 2.484375,-2.109375 4.125,-4.71875 4.46875,-2.109375 Z m 0,0"
             id="path64" />
        </g>
      </g>
      <g
         fill="#000000"
         fill-opacity="1"
         id="g36"
         transform="matrix(1.33333,0,0,1.33333,-3.34483,-2.65367)">
        <g
           id="use33"
           transform="translate(125.175,10.959)">
          <path
             d="m 4.328125,-4.421875 c -0.140625,0 -0.59375,0 -0.59375,0.484375 0,0.296875 0.203125,0.5 0.5,0.5 0.265625,0 0.5,-0.171875 0.5,-0.515625 0,-0.796875 -0.84375,-1.375 -1.8125,-1.375 -1.390625,0 -2.5,1.234375 -2.5,2.75 0,1.53125 1.140625,2.703125 2.5,2.703125 1.578125,0 1.9375,-1.4375 1.9375,-1.546875 0,-0.109375 -0.09375,-0.109375 -0.125,-0.109375 -0.109375,0 -0.125,0.03125 -0.15625,0.1875 C 4.3125,-0.5 3.671875,-0.140625 3.03125,-0.140625 c -0.734375,0 -1.703125,-0.640625 -1.703125,-2.453125 0,-1.984375 1.015625,-2.46875 1.609375,-2.46875 0.453125,0 1.109375,0.171875 1.390625,0.640625 z m 0,0"
             id="path65" />
        </g>
        <g
           id="use34"
           transform="translate(130.3779,10.959)">
          <path
             d="m 5.484375,-2.5625 c 0,-1.53125 -1.171875,-2.765625 -2.5625,-2.765625 -1.421875,0 -2.5625,1.265625 -2.5625,2.765625 0,1.53125 1.1875,2.6875 2.5625,2.6875 1.40625,0 2.5625,-1.171875 2.5625,-2.6875 z m -2.5625,2.421875 c -0.4375,0 -0.96875,-0.1875 -1.3125,-0.78125 -0.328125,-0.53125 -0.34375,-1.234375 -0.34375,-1.75 0,-0.453125 0,-1.171875 0.375,-1.71875 C 1.96875,-4.90625 2.5,-5.09375 2.921875,-5.09375 c 0.453125,0 0.96875,0.21875 1.28125,0.6875 0.375,0.546875 0.375,1.296875 0.375,1.734375 0,0.421875 0,1.171875 -0.3125,1.734375 C 3.9375,-0.375 3.375,-0.140625 2.921875,-0.140625 Z m 0,0"
             id="path66" />
        </g>
        <g
           id="use35"
           transform="translate(136.23117,10.959)">
          <path
             d="m 3.921875,-5.0625 c 0,-0.203125 0,-0.265625 -0.125,-0.265625 -0.09375,0 -0.3125,0.265625 -0.40625,0.375 -0.359375,-0.3125 -0.734375,-0.375 -1.125,-0.375 -1.4375,0 -1.875,0.78125 -1.875,1.4375 0,0.140625 0,0.5625 0.453125,0.96875 0.390625,0.34375 0.796875,0.421875 1.34375,0.53125 0.65625,0.125 0.8125,0.171875 1.109375,0.40625 0.21875,0.171875 0.375,0.4375 0.375,0.78125 C 3.671875,-0.6875 3.375,-0.125 2.3125,-0.125 1.53125,-0.125 0.953125,-0.578125 0.6875,-1.765625 0.640625,-1.984375 0.640625,-2 0.640625,-2.015625 0.609375,-2.0625 0.5625,-2.0625 0.53125,-2.0625 0.390625,-2.0625 0.390625,-2 0.390625,-1.78125 v 1.625 c 0,0.21875 0,0.28125 0.125,0.28125 0.0625,0 0.0625,-0.015625 0.265625,-0.265625 C 0.84375,-0.234375 0.84375,-0.25 1.03125,-0.4375 1.484375,0.125 2.125,0.125 2.328125,0.125 c 1.25,0 1.875,-0.703125 1.875,-1.640625 0,-0.640625 -0.390625,-1.03125 -0.5,-1.140625 -0.421875,-0.375 -0.75,-0.4375 -1.546875,-0.578125 -0.34375,-0.078125 -1.21875,-0.25 -1.21875,-0.96875 0,-0.359375 0.25,-0.90625 1.328125,-0.90625 1.296875,0 1.375,1.109375 1.390625,1.46875 0.015625,0.109375 0.09375,0.109375 0.140625,0.109375 0.125,0 0.125,-0.0625 0.125,-0.28125 z m 0,0"
             id="path67" />
        </g>
        <g
           id="use36"
           transform="translate(140.84827,10.959)">
          <path
             d="m 3.890625,2.90625 c 0,-0.03125 0,-0.0625 -0.203125,-0.265625 C 2.484375,1.4375 1.8125,-0.53125 1.8125,-2.96875 c 0,-2.328125 0.5625,-4.328125 1.953125,-5.734375 0.125,-0.109375 0.125,-0.125 0.125,-0.171875 0,-0.0625 -0.0625,-0.09375 -0.109375,-0.09375 -0.15625,0 -1.140625,0.859375 -1.71875,2.03125 -0.609375,1.21875 -0.890625,2.484375 -0.890625,3.96875 0,1.0625 0.171875,2.484375 0.78125,3.75 C 2.671875,2.21875 3.640625,3 3.78125,3 3.828125,3 3.890625,2.96875 3.890625,2.90625 Z m 0,0"
             id="path68" />
        </g>
      </g>
      <g
         fill="#000000"
         fill-opacity="1"
         id="g37"
         transform="matrix(1.33333,0,0,1.33333,-3.34483,-2.65367)">
        <g
           id="use37"
           transform="translate(145.39999,10.959)">
          <path
             d="M 6.078125,-4.5 C 6.234375,-4.5 6.625,-4.5 6.625,-4.890625 6.625,-5.15625 6.390625,-5.15625 6.1875,-5.15625 H 3.53125 c -1.78125,0 -3.078125,2 -3.078125,3.40625 0,1.015625 0.65625,1.875 1.734375,1.875 1.40625,0 2.953125,-1.53125 2.953125,-3.3125 C 5.140625,-3.65625 5.03125,-4.109375 4.75,-4.5 Z m -3.875,4.375 c -0.609375,0 -1.0625,-0.453125 -1.0625,-1.28125 0,-0.71875 0.4375,-3.09375 2.1875,-3.09375 0.515625,0 1.09375,0.25 1.09375,1.171875 0,0.40625 -0.1875,1.421875 -0.609375,2.109375 C 3.375,-0.515625 2.734375,-0.125 2.203125,-0.125 Z m 0,0"
             id="path69" />
        </g>
      </g>
      <g
         fill="#000000"
         fill-opacity="1"
         id="g38"
         transform="matrix(1.33333,0,0,1.33333,-3.34483,-2.65367)">
        <g
           id="use38"
           transform="translate(152.48346,10.959)">
          <path
             d="M 2.40625,-4.8125 H 3.5 c 0.234375,0 0.34375,0 0.34375,-0.203125 0,-0.140625 -0.0625,-0.140625 -0.3125,-0.140625 H 2.484375 l 0.4375,-1.734375 C 2.96875,-7.0625 2.96875,-7.09375 2.96875,-7.171875 c 0,-0.1875 -0.140625,-0.296875 -0.296875,-0.296875 -0.109375,0 -0.375,0.03125 -0.46875,0.421875 l -0.46875,1.890625 h -1.125 c -0.234375,0 -0.34375,0 -0.34375,0.234375 0,0.109375 0.078125,0.109375 0.3125,0.109375 h 1.0625 L 0.84375,-1.65625 c -0.09375,0.421875 -0.125,0.546875 -0.125,0.703125 0,0.5625 0.390625,1.078125 1.0625,1.078125 1.203125,0 1.859375,-1.75 1.859375,-1.828125 0,-0.078125 -0.0625,-0.109375 -0.125,-0.109375 -0.03125,0 -0.078125,0 -0.09375,0.046875 C 3.40625,-1.75 3.390625,-1.75 3.3125,-1.546875 c -0.25,0.59375 -0.796875,1.421875 -1.5,1.421875 -0.359375,0 -0.375,-0.296875 -0.375,-0.5625 0,0 0,-0.234375 0.03125,-0.375 z m 0,0"
             id="path70" />
        </g>
      </g>
      <g
         fill="#000000"
         fill-opacity="1"
         id="g39"
         transform="matrix(1.33333,0,0,1.33333,-3.34483,-2.65367)">
        <g
           id="use39"
           transform="translate(156.71001,10.959)">
          <path
             d="M 3.375,-2.96875 C 3.375,-3.890625 3.25,-5.359375 2.578125,-6.75 1.875,-8.1875 0.890625,-8.96875 0.765625,-8.96875 c -0.046875,0 -0.109375,0.03125 -0.109375,0.09375 0,0.046875 0,0.0625 0.203125,0.265625 1.203125,1.203125 1.859375,3.1875 1.859375,5.625 0,2.3125 -0.5625,4.3125 -1.9375,5.71875 C 0.65625,2.84375 0.65625,2.875 0.65625,2.90625 0.65625,2.96875 0.71875,3 0.765625,3 0.921875,3 1.90625,2.140625 2.484375,0.96875 3.09375,-0.25 3.375,-1.546875 3.375,-2.96875 Z m 0,0"
             id="path71" />
        </g>
      </g>
      <g
         fill="#000000"
         fill-opacity="1"
         id="g40"
         transform="matrix(1.33333,0,0,1.33333,-3.34483,-2.65367)">
        <g
           id="use40"
           transform="translate(163.9166,10.959)">
          <path
             d="M 4.765625,-2.765625 H 8.0625 c 0.171875,0 0.390625,0 0.390625,-0.203125 0,-0.234375 -0.203125,-0.234375 -0.390625,-0.234375 H 4.765625 V -6.5 c 0,-0.171875 0,-0.390625 -0.21875,-0.390625 -0.21875,0 -0.21875,0.203125 -0.21875,0.390625 v 3.296875 H 1.03125 c -0.171875,0 -0.390625,0 -0.390625,0.21875 0,0.21875 0.203125,0.21875 0.390625,0.21875 H 4.328125 V 0.53125 c 0,0.171875 0,0.390625 0.21875,0.390625 0.21875,0 0.21875,-0.203125 0.21875,-0.390625 z m 0,0"
             id="path72" />
        </g>
      </g>
      <g
         fill="#000000"
         fill-opacity="1"
         id="g93"
         transform="matrix(1.33333,0,0,1.33333,-3.34483,-2.65367)">
        <g
           id="use41"
           transform="translate(175.67999,10.959)">
          <path
             d="M 4.984375,-7.296875 C 5.0625,-7.578125 5.078125,-7.6875 5.265625,-7.734375 5.359375,-7.75 5.75,-7.75 6,-7.75 c 1.203125,0 1.75,0.046875 1.75,0.96875 0,0.1875 -0.046875,0.640625 -0.109375,1.078125 L 7.625,-5.5625 c 0,0.046875 0.046875,0.125 0.125,0.125 0.109375,0 0.109375,-0.0625 0.15625,-0.25 L 8.25,-7.8125 c 0.015625,-0.09375 0.015625,-0.125 0.015625,-0.15625 0,-0.140625 -0.0625,-0.140625 -0.3125,-0.140625 h -6.53125 c -0.28125,0 -0.28125,0.015625 -0.359375,0.234375 l -0.734375,2.15625 c 0,0.015625 -0.046875,0.15625 -0.046875,0.15625 0,0.0625 0.046875,0.125 0.125,0.125 0.09375,0 0.125,-0.046875 0.171875,-0.203125 0.5,-1.453125 0.75,-2.109375 2.34375,-2.109375 H 3.71875 c 0.28125,0 0.40625,0 0.40625,0.125 0,0.03125 0,0.0625 -0.0625,0.28125 L 2.46875,-0.9375 c -0.125,0.46875 -0.15625,0.59375 -1.421875,0.59375 -0.296875,0 -0.375,0 -0.375,0.21875 0,0.125 0.125,0.125 0.1875,0.125 0.296875,0 0.609375,-0.03125 0.90625,-0.03125 h 1.875 C 3.9375,-0.03125 4.25,0 4.546875,0 4.6875,0 4.8125,0 4.8125,-0.234375 c 0,-0.109375 -0.09375,-0.109375 -0.40625,-0.109375 -1.078125,0 -1.078125,-0.109375 -1.078125,-0.296875 0,0 0,-0.09375 0.046875,-0.28125 z m 0,0"
             id="path73" />
        </g>
      </g>
      <g
         fill="#000000"
         fill-opacity="1"
         id="g94"
         transform="matrix(1.33333,0,0,1.33333,-3.34483,-2.65367)">
        <g
           id="use42"
           transform="translate(182.541,12.752)">
          <path
             d="M 1.328125,-0.625 C 1.265625,-0.328125 1.25,-0.265625 0.65625,-0.265625 c -0.15625,0 -0.25,0 -0.25,0.15625 C 0.40625,0 0.515625,0 0.640625,0 h 2.75 c 1.671875,0 3.34375,-1.609375 3.34375,-3.390625 0,-1.21875 -0.8125,-2.046875 -2,-2.046875 h -2.78125 c -0.140625,0 -0.25,0 -0.25,0.140625 0,0.125 0.09375,0.125 0.234375,0.125 0.265625,0 0.5,0 0.5,0.125 0,0.03125 -0.015625,0.03125 -0.03125,0.140625 z M 3.09375,-4.890625 C 3.15625,-5.15625 3.171875,-5.171875 3.5,-5.171875 h 0.96875 c 0.921875,0 1.5625,0.53125 1.5625,1.5 0,0.265625 -0.125,1.5625 -0.8125,2.453125 C 4.875,-0.765625 4.1875,-0.265625 3.25,-0.265625 H 2.0625 C 1.984375,-0.28125 1.953125,-0.28125 1.953125,-0.328125 c 0,-0.0625 0.015625,-0.140625 0.03125,-0.1875 z m 0,0"
             id="path74" />
        </g>
      </g>
      <g
         fill="#000000"
         fill-opacity="1"
         id="g95"
         transform="matrix(1.33333,0,0,1.33333,-3.34483,-2.65367)">
        <g
           id="use43"
           transform="translate(192.214,10.959)">
          <path
             d="m 4.328125,-4.421875 c -0.140625,0 -0.59375,0 -0.59375,0.484375 0,0.296875 0.203125,0.5 0.5,0.5 0.265625,0 0.5,-0.171875 0.5,-0.515625 0,-0.796875 -0.84375,-1.375 -1.8125,-1.375 -1.390625,0 -2.5,1.234375 -2.5,2.75 0,1.53125 1.140625,2.703125 2.5,2.703125 1.578125,0 1.9375,-1.4375 1.9375,-1.546875 0,-0.109375 -0.09375,-0.109375 -0.125,-0.109375 -0.109375,0 -0.125,0.03125 -0.15625,0.1875 C 4.3125,-0.5 3.671875,-0.140625 3.03125,-0.140625 c -0.734375,0 -1.703125,-0.640625 -1.703125,-2.453125 0,-1.984375 1.015625,-2.46875 1.609375,-2.46875 0.453125,0 1.109375,0.171875 1.390625,0.640625 z m 0,0"
             id="path75" />
        </g>
        <g
           id="use44"
           transform="translate(197.4169,10.959)">
          <path
             d="m 5.484375,-2.5625 c 0,-1.53125 -1.171875,-2.765625 -2.5625,-2.765625 -1.421875,0 -2.5625,1.265625 -2.5625,2.765625 0,1.53125 1.1875,2.6875 2.5625,2.6875 1.40625,0 2.5625,-1.171875 2.5625,-2.6875 z m -2.5625,2.421875 c -0.4375,0 -0.96875,-0.1875 -1.3125,-0.78125 -0.328125,-0.53125 -0.34375,-1.234375 -0.34375,-1.75 0,-0.453125 0,-1.171875 0.375,-1.71875 C 1.96875,-4.90625 2.5,-5.09375 2.921875,-5.09375 c 0.453125,0 0.96875,0.21875 1.28125,0.6875 0.375,0.546875 0.375,1.296875 0.375,1.734375 0,0.421875 0,1.171875 -0.3125,1.734375 C 3.9375,-0.375 3.375,-0.140625 2.921875,-0.140625 Z m 0,0"
             id="path76" />
        </g>
        <g
           id="use45"
           transform="translate(203.27017,10.959)">
          <path
             d="m 3.921875,-5.0625 c 0,-0.203125 0,-0.265625 -0.125,-0.265625 -0.09375,0 -0.3125,0.265625 -0.40625,0.375 -0.359375,-0.3125 -0.734375,-0.375 -1.125,-0.375 -1.4375,0 -1.875,0.78125 -1.875,1.4375 0,0.140625 0,0.5625 0.453125,0.96875 0.390625,0.34375 0.796875,0.421875 1.34375,0.53125 0.65625,0.125 0.8125,0.171875 1.109375,0.40625 0.21875,0.171875 0.375,0.4375 0.375,0.78125 C 3.671875,-0.6875 3.375,-0.125 2.3125,-0.125 1.53125,-0.125 0.953125,-0.578125 0.6875,-1.765625 0.640625,-1.984375 0.640625,-2 0.640625,-2.015625 0.609375,-2.0625 0.5625,-2.0625 0.53125,-2.0625 0.390625,-2.0625 0.390625,-2 0.390625,-1.78125 v 1.625 c 0,0.21875 0,0.28125 0.125,0.28125 0.0625,0 0.0625,-0.015625 0.265625,-0.265625 C 0.84375,-0.234375 0.84375,-0.25 1.03125,-0.4375 1.484375,0.125 2.125,0.125 2.328125,0.125 c 1.25,0 1.875,-0.703125 1.875,-1.640625 0,-0.640625 -0.390625,-1.03125 -0.5,-1.140625 -0.421875,-0.375 -0.75,-0.4375 -1.546875,-0.578125 -0.34375,-0.078125 -1.21875,-0.25 -1.21875,-0.96875 0,-0.359375 0.25,-0.90625 1.328125,-0.90625 1.296875,0 1.375,1.109375 1.390625,1.46875 0.015625,0.109375 0.09375,0.109375 0.140625,0.109375 0.125,0 0.125,-0.0625 0.125,-0.28125 z m 0,0"
             id="path77" />
        </g>
        <g
           id="use46"
           transform="translate(207.88727,10.959)">
          <path
             d="m 3.890625,2.90625 c 0,-0.03125 0,-0.0625 -0.203125,-0.265625 C 2.484375,1.4375 1.8125,-0.53125 1.8125,-2.96875 c 0,-2.328125 0.5625,-4.328125 1.953125,-5.734375 0.125,-0.109375 0.125,-0.125 0.125,-0.171875 0,-0.0625 -0.0625,-0.09375 -0.109375,-0.09375 -0.15625,0 -1.140625,0.859375 -1.71875,2.03125 -0.609375,1.21875 -0.890625,2.484375 -0.890625,3.96875 0,1.0625 0.171875,2.484375 0.78125,3.75 C 2.671875,2.21875 3.640625,3 3.78125,3 3.828125,3 3.890625,2.96875 3.890625,2.90625 Z m 0,0"
             id="path78" />
        </g>
      </g>
      <g
         fill="#000000"
         fill-opacity="1"
         id="g96"
         transform="matrix(1.33333,0,0,1.33333,-3.34483,-2.65367)">
        <g
           id="use47"
           transform="translate(212.439,10.959)">
          <path
             d="m 3.109375,-5.21875 c -1.53125,0.375 -2.625,1.96875 -2.625,3.359375 0,1.28125 0.859375,2 1.8125,2 1.40625,0 2.359375,-1.9375 2.359375,-3.515625 0,-1.078125 -0.5,-1.734375 -0.796875,-2.140625 C 3.421875,-6.078125 2.703125,-7 2.703125,-7.5625 c 0,-0.203125 0.15625,-0.5625 0.671875,-0.5625 0.375,0 0.609375,0.125 0.96875,0.328125 0.109375,0.078125 0.375,0.234375 0.53125,0.234375 0.25,0 0.4375,-0.25 0.4375,-0.453125 0,-0.21875 -0.1875,-0.25 -0.609375,-0.34375 -0.5625,-0.125 -0.71875,-0.125 -0.921875,-0.125 -0.203125,0 -1.375,0 -1.375,1.21875 0,0.578125 0.296875,1.265625 0.703125,2.046875 z m 0.125,0.234375 C 3.6875,-4.046875 3.875,-3.6875 3.875,-2.90625 c 0,0.9375 -0.5,2.8125 -1.5625,2.8125 -0.46875,0 -1.140625,-0.3125 -1.140625,-1.421875 0,-0.78125 0.4375,-3.03125 2.0625,-3.46875 z m 0,0"
             id="path79" />
        </g>
      </g>
      <g
         fill="#000000"
         fill-opacity="1"
         id="g97"
         transform="matrix(1.33333,0,0,1.33333,-3.34483,-2.65367)">
        <g
           id="use48"
           transform="translate(218.07826,10.959)">
          <path
             d="M 2.40625,-4.8125 H 3.5 c 0.234375,0 0.34375,0 0.34375,-0.203125 0,-0.140625 -0.0625,-0.140625 -0.3125,-0.140625 H 2.484375 l 0.4375,-1.734375 C 2.96875,-7.0625 2.96875,-7.09375 2.96875,-7.171875 c 0,-0.1875 -0.140625,-0.296875 -0.296875,-0.296875 -0.109375,0 -0.375,0.03125 -0.46875,0.421875 l -0.46875,1.890625 h -1.125 c -0.234375,0 -0.34375,0 -0.34375,0.234375 0,0.109375 0.078125,0.109375 0.3125,0.109375 h 1.0625 L 0.84375,-1.65625 c -0.09375,0.421875 -0.125,0.546875 -0.125,0.703125 0,0.5625 0.390625,1.078125 1.0625,1.078125 1.203125,0 1.859375,-1.75 1.859375,-1.828125 0,-0.078125 -0.0625,-0.109375 -0.125,-0.109375 -0.03125,0 -0.078125,0 -0.09375,0.046875 C 3.40625,-1.75 3.390625,-1.75 3.3125,-1.546875 c -0.25,0.59375 -0.796875,1.421875 -1.5,1.421875 -0.359375,0 -0.375,-0.296875 -0.375,-0.5625 0,0 0,-0.234375 0.03125,-0.375 z m 0,0"
             id="path80" />
        </g>
      </g>
      <g
         fill="#000000"
         fill-opacity="1"
         id="g98"
         transform="matrix(1.33333,0,0,1.33333,-3.34483,-2.65367)">
        <g
           id="use49"
           transform="translate(222.299,10.959)">
          <path
             d="M 3.375,-2.96875 C 3.375,-3.890625 3.25,-5.359375 2.578125,-6.75 1.875,-8.1875 0.890625,-8.96875 0.765625,-8.96875 c -0.046875,0 -0.109375,0.03125 -0.109375,0.09375 0,0.046875 0,0.0625 0.203125,0.265625 1.203125,1.203125 1.859375,3.1875 1.859375,5.625 0,2.3125 -0.5625,4.3125 -1.9375,5.71875 C 0.65625,2.84375 0.65625,2.875 0.65625,2.90625 0.65625,2.96875 0.71875,3 0.765625,3 0.921875,3 1.90625,2.140625 2.484375,0.96875 3.09375,-0.25 3.375,-1.546875 3.375,-2.96875 Z m 0,0"
             id="path81" />
        </g>
      </g>
    </g>
  </g>
</svg>
