<?xml version="1.0" encoding="utf-8"?>
<!-- Generator: Adobe Illustrator 26.0.1, SVG Export Plug-In . SVG Version: 6.00 Build 0)  -->
<svg version="1.1" id="Layer_1" xmlns="http://www.w3.org/2000/svg" xmlns:xlink="http://www.w3.org/1999/xlink" x="0px" y="0px"
	 viewBox="0 0 288 86" style="enable-background:new 0 0 288 86;" xml:space="preserve">
<style type="text/css">
	.st0{fill-rule:evenodd;clip-rule:evenodd;fill:#00A69D;}
	.st1{fill-rule:evenodd;clip-rule:evenodd;fill:#090204;}
	.st2{fill-rule:evenodd;clip-rule:evenodd;fill:#D6DE23;}
	.st3{fill-rule:evenodd;clip-rule:evenodd;fill:#F6931D;}
	.st4{filter:url(#Adobe_OpacityMaskFilter);}
	.st5{fill-rule:evenodd;clip-rule:evenodd;fill:#FFFFFF;}
	.st6{mask:url(#mask-2_00000038407121796421401910000006275342314768032386_);fill-rule:evenodd;clip-rule:evenodd;fill:#090204;}
</style>
<path id="Fill-1" class="st0" d="M95.3,46.8c0-0.1,0.1-0.3,0.3-0.3h6c0.2,0,0.3,0.1,0.3,0.3V48c0,0.1-0.1,0.3-0.3,0.3h-4.4v2.4h3.6
	c0.1,0,0.3,0.1,0.3,0.3v1.2c0,0.2-0.1,0.3-0.3,0.3h-3.6v2.6h4.4c0.2,0,0.3,0.1,0.3,0.3v1.2c0,0.1-0.1,0.3-0.3,0.3h-6
	c-0.2,0-0.3-0.1-0.3-0.3V46.8z"/>
<path id="Fill-3" class="st0" d="M103.4,55.4l0.5-0.9c0.1-0.2,0.4-0.2,0.5-0.1c0.1,0,1.3,0.9,2.2,0.9c0.8,0,1.3-0.5,1.3-1.1
	c0-0.8-0.6-1.3-1.9-1.8c-1.4-0.6-2.8-1.4-2.8-3.2c0-1.3,1-2.8,3.3-2.8c1.5,0,2.7,0.8,2.9,1c0.1,0.1,0.2,0.3,0.1,0.5l-0.6,0.8
	c-0.1,0.2-0.3,0.3-0.5,0.2c-0.1-0.1-1.2-0.8-2-0.8c-0.8,0-1.3,0.6-1.3,1c0,0.7,0.5,1.2,1.7,1.7c1.4,0.6,3.1,1.4,3.1,3.3
	c0,1.5-1.3,2.9-3.4,2.9c-1.9,0-2.9-0.9-3.2-1.1C103.3,55.7,103.2,55.7,103.4,55.4"/>
<path id="Fill-5" class="st0" d="M113.4,48.3h-2.3c-0.2,0-0.3-0.1-0.3-0.3v-1.2c0-0.1,0.1-0.3,0.3-0.3h6.4c0.2,0,0.3,0.1,0.3,0.3V48
	c0,0.1-0.1,0.3-0.3,0.3h-2.3v8.3c0,0.1-0.1,0.3-0.3,0.3h-1.4c-0.1,0-0.3-0.1-0.3-0.3V48.3z"/>
<path id="Fill-7" class="st0" d="M123.8,51.3c0.8,0,1.5-0.7,1.5-1.5c0-0.8-0.7-1.4-1.5-1.4h-2.4v2.9H123.8z M119.4,46.8
	c0-0.1,0.1-0.3,0.3-0.3h4.2c1.8,0,3.2,1.4,3.2,3.2c0,1.4-0.9,2.5-2.2,3l2,3.7c0.1,0.2,0,0.4-0.3,0.4h-1.5c-0.1,0-0.2-0.1-0.2-0.1
	l-2-3.9h-1.6v3.8c0,0.1-0.1,0.3-0.3,0.3h-1.4c-0.2,0-0.3-0.1-0.3-0.3V46.8z"/>
<path id="Fill-9" class="st0" d="M129.3,46.8c0-0.1,0.1-0.3,0.3-0.3h1.4c0.1,0,0.3,0.1,0.3,0.3v9.8c0,0.1-0.1,0.3-0.3,0.3h-1.4
	c-0.1,0-0.3-0.1-0.3-0.3V46.8z"/>
<path id="Fill-11" class="st0" d="M133.9,46.8c0-0.1,0.1-0.3,0.3-0.3h6c0.2,0,0.3,0.1,0.3,0.3V48c0,0.1-0.1,0.3-0.3,0.3h-4.4v2.4
	h3.6c0.1,0,0.3,0.1,0.3,0.3v1.2c0,0.2-0.1,0.3-0.3,0.3h-3.6v2.6h4.4c0.2,0,0.3,0.1,0.3,0.3v1.2c0,0.1-0.1,0.3-0.3,0.3h-6
	c-0.2,0-0.3-0.1-0.3-0.3V46.8z"/>
<path id="Fill-13" class="st1" d="M145.9,46.8c0-0.1,0.1-0.3,0.3-0.3h1.4c0.2,0,0.3,0.1,0.3,0.3v3.9h4.8v-3.9c0-0.1,0.1-0.3,0.3-0.3
	h1.4c0.1,0,0.3,0.1,0.3,0.3v9.8c0,0.1-0.1,0.3-0.3,0.3H153c-0.2,0-0.3-0.1-0.3-0.3v-4.1h-4.8v4.1c0,0.1-0.1,0.3-0.3,0.3h-1.4
	c-0.1,0-0.3-0.1-0.3-0.3V46.8z"/>
<path id="Fill-15" class="st1" d="M157.3,46.8c0-0.1,0.1-0.3,0.3-0.3h1.4c0.1,0,0.3,0.1,0.3,0.3v9.8c0,0.1-0.1,0.3-0.3,0.3h-1.4
	c-0.1,0-0.3-0.1-0.3-0.3V46.8z"/>
<path id="Fill-17" class="st1" d="M166.5,46.4c1.3,0,2.6,0.5,3.6,1.4c0.1,0.1,0.1,0.3,0,0.4l-0.9,1c-0.1,0.1-0.3,0.1-0.4,0
	c-0.6-0.6-1.4-0.9-2.2-0.9c-1.8,0-3.3,1.6-3.3,3.4c0,1.8,1.5,3.4,3.3,3.4c0.8,0,1.5-0.3,1.8-0.4v-1.3h-1.2c-0.2,0-0.3-0.1-0.3-0.3
	V52c0-0.2,0.1-0.3,0.3-0.3h2.8c0.1,0,0.3,0.1,0.3,0.3v3.8c0,0.1-0.1,0.2-0.1,0.2c0,0-1.5,1-3.7,1c-2.9,0-5.3-2.3-5.3-5.3
	S163.6,46.4,166.5,46.4"/>
<path id="Fill-19" class="st1" d="M172.5,46.8c0-0.1,0.1-0.3,0.3-0.3h1.4c0.2,0,0.3,0.1,0.3,0.3v3.9h4.8v-3.9c0-0.1,0.1-0.3,0.3-0.3
	h1.4c0.1,0,0.3,0.1,0.3,0.3v9.8c0,0.1-0.1,0.3-0.3,0.3h-1.4c-0.2,0-0.3-0.1-0.3-0.3v-4.1h-4.8v4.1c0,0.1-0.1,0.3-0.3,0.3h-1.4
	c-0.1,0-0.3-0.1-0.3-0.3V46.8z"/>
<path id="Fill-21" class="st1" d="M183.9,46.8c0-0.1,0.1-0.3,0.3-0.3h6c0.2,0,0.3,0.1,0.3,0.3V48c0,0.1-0.1,0.3-0.3,0.3h-4.4v2.4
	h3.6c0.1,0,0.3,0.1,0.3,0.3v1.2c0,0.2-0.1,0.3-0.3,0.3h-3.6v2.6h4.4c0.2,0,0.3,0.1,0.3,0.3v1.2c0,0.1-0.1,0.3-0.3,0.3h-6
	c-0.2,0-0.3-0.1-0.3-0.3V46.8z"/>
<path id="Fill-23" class="st1" d="M196.9,51.3c0.8,0,1.5-0.7,1.5-1.5c0-0.8-0.7-1.4-1.5-1.4h-2.4v2.9H196.9z M192.6,46.8
	c0-0.1,0.1-0.3,0.3-0.3h4.2c1.8,0,3.2,1.4,3.2,3.2c0,1.4-0.9,2.5-2.2,3l2,3.7c0.1,0.2,0,0.4-0.3,0.4h-1.5c-0.1,0-0.2-0.1-0.2-0.1
	l-2-3.9h-1.6v3.8c0,0.1-0.1,0.3-0.3,0.3h-1.4c-0.2,0-0.3-0.1-0.3-0.3V46.8z"/>
<path id="Fill-25" class="st1" d="M205.7,46.8c0-0.1,0.1-0.3,0.3-0.3h6c0.2,0,0.3,0.1,0.3,0.3V48c0,0.1-0.1,0.3-0.3,0.3h-4.4v2.4
	h3.6c0.1,0,0.3,0.1,0.3,0.3v1.2c0,0.2-0.1,0.3-0.3,0.3h-3.6v2.6h4.4c0.2,0,0.3,0.1,0.3,0.3v1.2c0,0.1-0.1,0.3-0.3,0.3h-6
	c-0.2,0-0.3-0.1-0.3-0.3V46.8z"/>
<path id="Fill-27" class="st1" d="M218,55.1c1.9,0,3.3-1.4,3.3-3.4c0-1.9-1.4-3.4-3.3-3.4h-1.7v6.7H218z M214.4,46.8
	c0-0.1,0.1-0.3,0.3-0.3h3.5c2.8,0,5.2,2.3,5.2,5.1c0,2.9-2.3,5.2-5.2,5.2h-3.5c-0.1,0-0.3-0.1-0.3-0.3V46.8z"/>
<path id="Fill-29" class="st1" d="M225.2,46.8c0-0.1,0.1-0.3,0.3-0.3h1.4c0.2,0,0.3,0.1,0.3,0.3v6c0,1.3,0.9,2.2,2.1,2.2
	s2.2-1,2.2-2.2v-6c0-0.1,0.1-0.3,0.3-0.3h1.4c0.1,0,0.3,0.1,0.3,0.3V53c0,2.2-1.8,4.1-4.1,4.1c-2.3,0-4.1-1.8-4.1-4.1V46.8z"/>
<path id="Fill-31" class="st1" d="M240.6,46.4c1.5,0,2.6,0.5,3.6,1.4c0.1,0.1,0.1,0.3,0,0.4l-0.9,0.9c-0.1,0.1-0.3,0.1-0.4,0
	c-0.6-0.5-1.4-0.9-2.3-0.9c-1.9,0-3.3,1.6-3.3,3.4c0,1.8,1.4,3.4,3.3,3.4c0.9,0,1.6-0.3,2.3-0.8c0.1-0.1,0.3-0.1,0.4,0l0.9,0.9
	c0.1,0.1,0.1,0.3,0,0.4c-1,1-2.3,1.4-3.6,1.4c-2.9,0-5.3-2.3-5.3-5.3S237.6,46.4,240.6,46.4"/>
<path id="Fill-33" class="st1" d="M251.1,53.3l-1.5-3.2h0l-1.4,3.2H251.1z M244.8,56.5l4.6-9.9c0-0.1,0.1-0.2,0.3-0.2h0.1
	c0.1,0,0.2,0.1,0.3,0.2l4.5,9.9c0.1,0.2,0,0.4-0.3,0.4H253c-0.2,0-0.3-0.1-0.4-0.3l-0.7-1.6h-4.4l-0.7,1.6c-0.1,0.1-0.2,0.3-0.4,0.3
	H245C244.8,56.9,244.7,56.7,244.8,56.5L244.8,56.5z"/>
<path id="Fill-35" class="st1" d="M256.8,48.3h-2.3c-0.2,0-0.3-0.1-0.3-0.3v-1.2c0-0.1,0.1-0.3,0.3-0.3h6.4c0.2,0,0.3,0.1,0.3,0.3
	V48c0,0.1-0.1,0.3-0.3,0.3h-2.3v8.3c0,0.1-0.1,0.3-0.3,0.3H257c-0.1,0-0.3-0.1-0.3-0.3V48.3z"/>
<path id="Fill-37" class="st1" d="M262.8,46.8c0-0.1,0.1-0.3,0.3-0.3h1.4c0.1,0,0.3,0.1,0.3,0.3v9.8c0,0.1-0.1,0.3-0.3,0.3h-1.4
	c-0.1,0-0.3-0.1-0.3-0.3V46.8z"/>
<path id="Fill-39" class="st1" d="M272,55.1c1.9,0,3.4-1.5,3.4-3.4c0-1.9-1.5-3.4-3.4-3.4c-1.9,0-3.4,1.5-3.4,3.4
	C268.6,53.6,270.2,55.1,272,55.1 M272,46.4c2.9,0,5.3,2.4,5.3,5.3c0,2.9-2.4,5.3-5.3,5.3s-5.3-2.3-5.3-5.3
	C266.7,48.8,269.1,46.4,272,46.4"/>
<path id="Fill-41" class="st1" d="M279.3,46.7c0-0.1,0.1-0.3,0.3-0.3h0.4l6.1,6.5h0v-6.1c0-0.1,0.1-0.3,0.3-0.3h1.4
	c0.1,0,0.3,0.1,0.3,0.3v9.9c0,0.1-0.1,0.3-0.3,0.3h-0.4l-6.2-6.8h0v6.3c0,0.1-0.1,0.3-0.3,0.3h-1.3c-0.1,0-0.3-0.1-0.3-0.3V46.7z"/>
<path id="Fill-43" class="st1" d="M95.3,30c0-0.1,0.1-0.3,0.3-0.3h6c0.2,0,0.3,0.1,0.3,0.3v1.2c0,0.1-0.1,0.3-0.3,0.3h-4.4v2.4h3.6
	c0.1,0,0.3,0.1,0.3,0.3v1.2c0,0.2-0.1,0.3-0.3,0.3h-3.6v2.6h4.4c0.2,0,0.3,0.1,0.3,0.3v1.2c0,0.1-0.1,0.3-0.3,0.3h-6
	c-0.2,0-0.3-0.1-0.3-0.3V30z"/>
<path id="Fill-45" class="st1" d="M103.9,29.8c0-0.1,0.1-0.3,0.3-0.3h0.4l6.1,6.5h0V30c0-0.1,0.1-0.3,0.3-0.3h1.4
	c0.1,0,0.3,0.1,0.3,0.3v9.9c0,0.1-0.1,0.3-0.3,0.3H112l-6.2-6.8h0v6.3c0,0.1-0.1,0.3-0.3,0.3h-1.3c-0.1,0-0.3-0.1-0.3-0.3V29.8z"/>
<path id="Fill-47" class="st1" d="M114.7,38.6l0.5-0.9c0.1-0.2,0.4-0.2,0.5-0.1c0.1,0,1.3,0.9,2.2,0.9c0.8,0,1.3-0.5,1.3-1.1
	c0-0.8-0.6-1.3-1.9-1.8c-1.4-0.6-2.8-1.4-2.8-3.2c0-1.3,1-2.8,3.3-2.8c1.5,0,2.7,0.8,2.9,1c0.1,0.1,0.2,0.3,0.1,0.5l-0.6,0.8
	c-0.1,0.2-0.3,0.3-0.5,0.2c-0.1-0.1-1.2-0.8-2-0.8c-0.8,0-1.3,0.6-1.3,1c0,0.7,0.5,1.2,1.7,1.7c1.4,0.6,3.1,1.4,3.1,3.3
	c0,1.5-1.3,2.9-3.4,2.9c-1.9,0-2.9-0.9-3.2-1.1C114.7,38.9,114.6,38.8,114.7,38.6"/>
<path id="Fill-49" class="st1" d="M123.3,30c0-0.1,0.1-0.3,0.3-0.3h6c0.2,0,0.3,0.1,0.3,0.3v1.2c0,0.1-0.1,0.3-0.3,0.3h-4.4v2.4h3.6
	c0.1,0,0.3,0.1,0.3,0.3v1.2c0,0.2-0.1,0.3-0.3,0.3h-3.6v2.6h4.4c0.2,0,0.3,0.1,0.3,0.3v1.2c0,0.1-0.1,0.3-0.3,0.3h-6
	c-0.2,0-0.3-0.1-0.3-0.3V30z"/>
<path id="Fill-51" class="st1" d="M132,30c0-0.1,0.1-0.3,0.3-0.3h1.4c0.1,0,0.3,0.1,0.3,0.3v9.8c0,0.1-0.1,0.3-0.3,0.3h-1.4
	c-0.1,0-0.3-0.1-0.3-0.3V30z"/>
<path id="Fill-53" class="st1" d="M141.1,29.6c1.3,0,2.6,0.5,3.6,1.4c0.1,0.1,0.1,0.3,0,0.4l-0.9,1c-0.1,0.1-0.3,0.1-0.4,0
	c-0.6-0.6-1.4-0.9-2.2-0.9c-1.8,0-3.3,1.6-3.3,3.4c0,1.8,1.5,3.4,3.3,3.4c0.8,0,1.5-0.3,1.8-0.4v-1.3h-1.2c-0.2,0-0.3-0.1-0.3-0.3
	v-1.2c0-0.2,0.1-0.3,0.3-0.3h2.8c0.1,0,0.3,0.1,0.3,0.3V39c0,0.1-0.1,0.2-0.1,0.2c0,0-1.5,1-3.7,1c-2.9,0-5.3-2.3-5.3-5.3
	C135.8,31.9,138.2,29.6,141.1,29.6"/>
<path id="Fill-55" class="st1" d="M147.1,29.8c0-0.1,0.1-0.3,0.3-0.3h0.4l6.1,6.5h0V30c0-0.1,0.1-0.3,0.3-0.3h1.4
	c0.1,0,0.3,0.1,0.3,0.3v9.9c0,0.1-0.1,0.3-0.3,0.3h-0.4l-6.2-6.8h0v6.3c0,0.1-0.1,0.3-0.3,0.3h-1.3c-0.1,0-0.3-0.1-0.3-0.3V29.8z"/>
<path id="Fill-57" class="st1" d="M158.4,30c0-0.1,0.1-0.3,0.3-0.3h6c0.2,0,0.3,0.1,0.3,0.3v1.2c0,0.1-0.1,0.3-0.3,0.3h-4.4v2.4h3.6
	c0.1,0,0.3,0.1,0.3,0.3v1.2c0,0.2-0.1,0.3-0.3,0.3h-3.6v2.6h4.4c0.2,0,0.3,0.1,0.3,0.3v1.2c0,0.1-0.1,0.3-0.3,0.3h-6
	c-0.2,0-0.3-0.1-0.3-0.3V30z"/>
<path id="Fill-59" class="st1" d="M168.2,29.8c0-0.1,0.1-0.2,0.3-0.2h0.2c0.1,0,0.2,0.1,0.3,0.1l3.2,7h0l3.2-7
	c0-0.1,0.1-0.1,0.3-0.1h0.2c0.2,0,0.3,0.1,0.3,0.2l1.7,9.9c0,0.2-0.1,0.3-0.3,0.3h-1.3c-0.1,0-0.3-0.1-0.3-0.2l-0.9-5.6h0l-2.6,5.8
	c0,0.1-0.1,0.2-0.3,0.2h-0.3c-0.1,0-0.2-0.1-0.3-0.2l-2.6-5.8h0l-0.9,5.6c0,0.1-0.1,0.2-0.3,0.2h-1.3c-0.2,0-0.3-0.1-0.3-0.3
	L168.2,29.8z"/>
<path id="Fill-61" class="st1" d="M180,30c0-0.1,0.1-0.3,0.3-0.3h6c0.2,0,0.3,0.1,0.3,0.3v1.2c0,0.1-0.1,0.3-0.3,0.3h-4.4v2.4h3.6
	c0.1,0,0.3,0.1,0.3,0.3v1.2c0,0.2-0.1,0.3-0.3,0.3h-3.6v2.6h4.4c0.2,0,0.3,0.1,0.3,0.3v1.2c0,0.1-0.1,0.3-0.3,0.3h-6
	c-0.2,0-0.3-0.1-0.3-0.3V30z"/>
<path id="Fill-63" class="st1" d="M188.6,29.8c0-0.1,0.1-0.3,0.3-0.3h0.4l6.1,6.5h0V30c0-0.1,0.1-0.3,0.3-0.3h1.4
	c0.1,0,0.3,0.1,0.3,0.3v9.9c0,0.1-0.1,0.3-0.3,0.3h-0.4l-6.2-6.8h0v6.3c0,0.1-0.1,0.3-0.3,0.3h-1.3c-0.1,0-0.3-0.1-0.3-0.3V29.8z"/>
<path id="Fill-65" class="st1" d="M201.4,31.5h-2.3c-0.2,0-0.3-0.1-0.3-0.3V30c0-0.1,0.1-0.3,0.3-0.3h6.4c0.2,0,0.3,0.1,0.3,0.3v1.2
	c0,0.1-0.1,0.3-0.3,0.3h-2.3v8.3c0,0.1-0.1,0.3-0.3,0.3h-1.4c-0.1,0-0.3-0.1-0.3-0.3V31.5z"/>
<path id="Fill-67" class="st1" d="M210.1,38.6l0.5-0.9c0.1-0.2,0.4-0.2,0.5-0.1c0.1,0,1.3,0.9,2.2,0.9c0.8,0,1.3-0.5,1.3-1.1
	c0-0.8-0.6-1.3-1.9-1.8c-1.4-0.6-2.8-1.4-2.8-3.2c0-1.3,1-2.8,3.3-2.8c1.5,0,2.7,0.8,2.9,1c0.1,0.1,0.2,0.3,0.1,0.5l-0.6,0.8
	c-0.1,0.2-0.3,0.3-0.5,0.2c-0.1-0.1-1.2-0.8-2-0.8c-0.8,0-1.3,0.6-1.3,1c0,0.7,0.5,1.2,1.7,1.7c1.4,0.6,3.1,1.4,3.1,3.3
	c0,1.5-1.3,2.9-3.4,2.9c-1.9,0-2.9-0.9-3.2-1.1C210,38.9,209.9,38.8,210.1,38.6"/>
<path id="Fill-69" class="st1" d="M218.5,30c0-0.1,0.1-0.3,0.3-0.3h1.4c0.2,0,0.3,0.1,0.3,0.3v6c0,1.3,0.9,2.2,2.1,2.2
	c1.3,0,2.2-1,2.2-2.2v-6c0-0.1,0.1-0.3,0.3-0.3h1.4c0.1,0,0.3,0.1,0.3,0.3v6.1c0,2.2-1.8,4.1-4.1,4.1c-2.3,0-4.1-1.8-4.1-4.1V30z"/>
<path id="Fill-71" class="st1" d="M232.9,34.5c0.8,0,1.5-0.7,1.5-1.5c0-0.8-0.7-1.4-1.5-1.4h-1.7v3H232.9z M229.2,30
	c0-0.1,0.1-0.3,0.3-0.3h3.5c1.8,0,3.3,1.5,3.3,3.3c0,1.8-1.5,3.3-3.3,3.3h-1.8v3.5c0,0.1-0.1,0.3-0.3,0.3h-1.4
	c-0.2,0-0.3-0.1-0.3-0.3V30z"/>
<path id="Fill-73" class="st1" d="M239.9,28.6l-0.3-0.5c-0.1-0.1,0-0.2,0.1-0.3l2.4-1.4c0.2-0.1,0.3-0.1,0.4,0l0.4,0.8
	c0.1,0.2,0,0.3-0.1,0.4l-2.6,1.1C240.1,28.8,240,28.7,239.9,28.6L239.9,28.6z M238,30c0-0.1,0.1-0.3,0.3-0.3h6
	c0.2,0,0.3,0.1,0.3,0.3v1.2c0,0.1-0.1,0.3-0.3,0.3h-4.4v2.4h3.6c0.1,0,0.3,0.1,0.3,0.3v1.2c0,0.2-0.1,0.3-0.3,0.3h-3.6v2.6h4.4
	c0.2,0,0.3,0.1,0.3,0.3v1.2c0,0.1-0.1,0.3-0.3,0.3h-6c-0.2,0-0.3-0.1-0.3-0.3V30z"/>
<path id="Fill-75" class="st1" d="M250.9,34.4c0.8,0,1.5-0.7,1.5-1.5c0-0.8-0.7-1.4-1.5-1.4h-2.4v2.9H250.9z M246.6,30
	c0-0.1,0.1-0.3,0.3-0.3h4.2c1.8,0,3.2,1.4,3.2,3.2c0,1.4-0.9,2.5-2.2,3l2,3.7c0.1,0.2,0,0.4-0.3,0.4h-1.5c-0.1,0-0.2-0.1-0.2-0.1
	l-2-3.9h-1.6v3.8c0,0.1-0.1,0.3-0.3,0.3h-1.4c-0.2,0-0.3-0.1-0.3-0.3V30z"/>
<path id="Fill-77" class="st1" d="M256.4,30c0-0.1,0.1-0.3,0.3-0.3h1.4c0.1,0,0.3,0.1,0.3,0.3v9.8c0,0.1-0.1,0.3-0.3,0.3h-1.4
	c-0.1,0-0.3-0.1-0.3-0.3V30z"/>
<path id="Fill-79" class="st1" d="M261,30c0-0.1,0.1-0.3,0.3-0.3h6c0.2,0,0.3,0.1,0.3,0.3v1.2c0,0.1-0.1,0.3-0.3,0.3H263v2.4h3.6
	c0.1,0,0.3,0.1,0.3,0.3v1.2c0,0.2-0.1,0.3-0.3,0.3H263v2.6h4.4c0.2,0,0.3,0.1,0.3,0.3v1.2c0,0.1-0.1,0.3-0.3,0.3h-6
	c-0.2,0-0.3-0.1-0.3-0.3V30z"/>
<path id="Fill-81" class="st1" d="M269.6,30c0-0.1,0.1-0.3,0.3-0.3h1.4c0.2,0,0.3,0.1,0.3,0.3v6c0,1.3,0.9,2.2,2.1,2.2
	c1.3,0,2.2-1,2.2-2.2v-6c0-0.1,0.1-0.3,0.3-0.3h1.4c0.1,0,0.3,0.1,0.3,0.3v6.1c0,2.2-1.8,4.1-4.1,4.1c-2.3,0-4.1-1.8-4.1-4.1V30z"/>
<path id="Fill-83" class="st1" d="M284.6,34.4c0.8,0,1.5-0.7,1.5-1.5c0-0.8-0.7-1.4-1.5-1.4h-2.4v2.9H284.6z M280.3,30
	c0-0.1,0.1-0.3,0.3-0.3h4.2c1.8,0,3.2,1.4,3.2,3.2c0,1.4-0.9,2.5-2.2,3l2,3.7c0.1,0.2,0,0.4-0.3,0.4H286c-0.1,0-0.2-0.1-0.2-0.1
	l-2-3.9h-1.6v3.8c0,0.1-0.1,0.3-0.3,0.3h-1.4c-0.2,0-0.3-0.1-0.3-0.3V30z"/>
<path id="Fill-85" class="st2" d="M11.2,42L0,51.3l6-0.9C5,55,6,60,9.3,63.9c5.5,6.6,15.3,7.4,21.9,1.9c6.6-5.5,7.4-15.3,1.9-21.9
	C27.5,37.3,17.7,36.4,11.2,42"/>
<path id="Fill-87" class="st3" d="M58.3,17.3L55.7,3l-2.2,5.7c-3.5-3.2-8.3-4.8-13.3-3.9c-8.5,1.5-14.1,9.6-12.6,18
	c1.5,8.5,9.6,14.1,18,12.6C54.1,33.9,59.8,25.8,58.3,17.3"/>
<path id="Fill-89" class="st0" d="M56.1,70.4l13.7,5l-3.8-4.7c4.5-1.4,8.3-4.8,10.1-9.6c2.9-8.1-1.2-17-9.3-19.9s-17,1.2-19.9,9.3
	C43.8,58.6,48,67.5,56.1,70.4"/>
<g id="Group-93" transform="translate(28.470460, 50.872597)">
	<g id="Clip-92">
	</g>
	<defs>
		<filter id="Adobe_OpacityMaskFilter" filterUnits="userSpaceOnUse" x="0" y="0.9" width="32.8" height="33.8">
			<feColorMatrix  type="matrix" values="1 0 0 0 0  0 1 0 0 0  0 0 1 0 0  0 0 0 1 0"/>
		</filter>
	</defs>
	
		<mask maskUnits="userSpaceOnUse" x="0" y="0.9" width="32.8" height="33.8" id="mask-2_00000038407121796421401910000006275342314768032386_">
		<g class="st4">
			<polygon id="path-1_00000120548223130906580110000005507578119256696222_" class="st5" points="0,0.9 32.8,0.9 32.8,34.7 0,34.7 
							"/>
		</g>
	</mask>
	<path id="Fill-91" class="st6" d="M6.2,28.1c0.1,0,0.2,0,0.3,0.1c3.4,3.1,7.9,4.4,12.5,3.6c8-1.4,13.3-9.1,11.9-17.1
		c-1.4-8-9.1-13.3-17.1-11.9c-8,1.4-13.3,9.1-11.9,17.1v0l2,11.3l1-2.7c0-0.1,0.1-0.2,0.2-0.2L6.2,28.1z M4.2,34.7L3,34.6
		c-0.1,0-0.2-0.1-0.2-0.2L0.3,20.2c-1.6-8.9,4.4-17.4,13.3-19c8.9-1.6,17.4,4.4,19,13.3s-4.4,17.4-13.3,19
		c-4.7,0.8-9.4-0.4-13.1-3.3l-1.7,4.4C4.4,34.6,4.3,34.7,4.2,34.7L4.2,34.7z"/>
</g>
<path id="Fill-94" class="st1" d="M6.6,54.2l0.7,0.8c0.1,0.1,0.1,0.2,0.1,0.3c-1,4.5,0.2,9.1,3.1,12.6c5.2,6.2,14.5,7,20.7,1.8
	c3-2.5,4.8-6.1,5.2-10s-0.9-7.7-3.4-10.7c-2.5-3-6.1-4.8-10-5.2c-3.9-0.3-7.7,0.9-10.7,3.4l0,0l-8.8,7.4l2.8-0.4
	C6.4,54.1,6.5,54.1,6.6,54.2L6.6,54.2z M21.7,74.8c-4.7,0-9.3-2-12.6-5.8c-3.1-3.7-4.4-8.3-3.7-13l-4.6,0.7c-0.2,0-0.3-0.1-0.4-0.2
	l-0.5-1c-0.1-0.1,0-0.3,0.1-0.4l11-9.2c3.7-3.1,8.4-4.4,13.3-3.6c3.3,0.5,6.5,2.1,8.9,4.5c6.9,6.9,6.3,18.1-1,24.2
	C29.2,73.5,25.5,74.8,21.7,74.8L21.7,74.8z"/>
<path id="Fill-96" class="st1" d="M12.9,15.6l1.8,2.2c0.1,0.1,0.1,0.2,0.1,0.3l-0.3,1c0,0.1-0.1,0.2-0.2,0.2c-4.4,1.4-7.8,4.7-9.3,9
	C2.1,36,6.1,44.5,13.7,47.2s16.1-1.2,18.8-8.8c2.8-7.6-1.2-16.1-8.8-18.8l0,0L12.9,15.6z M18.7,49.8c-1.9,0-3.7-0.3-5.6-1
	c-8.5-3.1-12.9-12.5-9.8-21c1.6-4.5,5-8,9.4-9.7l-2.9-3.6c-0.1-0.1-0.1-0.3,0-0.4l0.6-0.9c0.1-0.1,0.3-0.2,0.4-0.1L24.3,18
	c8.5,3.1,12.9,12.5,9.8,21C31.7,45.7,25.4,49.8,18.7,49.8L18.7,49.8z"/>
<path id="Fill-98" class="st1" d="M38.8,3.6c-0.9,0-1.7,0.1-2.6,0.2c-8,1.4-13.3,9.1-11.9,17.1c1.4,8,9.1,13.3,17.1,11.9
	c8-1.4,13.3-9.1,11.9-17.1v0l-2-11.3l-1,2.7c0,0.1-0.1,0.2-0.2,0.2l-1,0.2c-0.1,0-0.2,0-0.3-0.1C45.9,4.9,42.4,3.6,38.8,3.6
	 M38.8,34.7c-7.8,0-14.7-5.6-16.1-13.5c-1.6-8.9,4.4-17.4,13.3-19c4.7-0.8,9.4,0.4,13.1,3.3l1.7-4.3C50.7,1,50.9,0.9,51,0.9L52.1,1
	c0.2,0,0.3,0.1,0.3,0.3l2.5,14.1c1.6,8.9-4.4,17.4-13.3,19C40.7,34.6,39.7,34.7,38.8,34.7"/>
<path id="Fill-100" class="st1" d="M61.9,13.4c-3.5,0-6.8,1.2-9.4,3.5c-6.2,5.2-7,14.5-1.8,20.7c5.2,6.2,14.5,7,20.7,1.8l0,0
	l8.8-7.4l-2.8,0.4c-0.1,0-0.2,0-0.3-0.1l-0.7-0.8c-0.1-0.1-0.1-0.2-0.1-0.3c1-4.5-0.2-9.1-3.1-12.6c-2.5-3-6.1-4.8-10-5.2
	C62.8,13.4,62.3,13.4,61.9,13.4 M61.9,44.5c-4.7,0-9.3-2-12.6-5.8c-5.8-6.9-4.9-17.3,2-23.1c3.7-3.1,8.6-4.5,13.5-3.6
	c3.4,0.6,6.6,2.3,9,4.9c3.5,3.7,5.1,8.7,4.3,13.7l4.6-0.7c0.2,0,0.3,0.1,0.4,0.2l0.5,1c0.1,0.1,0,0.3-0.1,0.4l-11,9.2
	C69.4,43.3,65.7,44.5,61.9,44.5"/>
<path id="Fill-102" class="st1" d="M65,38.4c-6,0-11.7,3.7-13.8,9.7c-2.8,7.6,1.2,16.1,8.8,18.8h0l10.8,3.9L69,68.6
	c-0.1-0.1-0.1-0.2-0.1-0.3l0.3-1c0-0.1,0.1-0.2,0.2-0.2c4.6-1.5,8.1-5,9.6-9.7c2.3-7.3-1.6-15.3-8.7-18C68.6,38.7,66.8,38.4,65,38.4
	L65,38.4z M73.2,73.3c-0.1,0.1-0.3,0.2-0.4,0.1l-13.4-4.9c-8.5-3.1-12.9-12.5-9.8-21c3.1-8.5,12.5-12.9,21-9.8
	c8.5,3.1,12.9,12.5,9.8,21c-1.6,4.5-5,8-9.4,9.7l2.9,3.6c0.1,0.1,0.1,0.3,0,0.4L73.2,73.3z"/>
<path id="Fill-104" class="st1" d="M42.2,40.1c-1.7,0-3.1,1.4-3.1,3.1c0,1.7,1.4,3.1,3.1,3.1c1.7,0,3.1-1.4,3.1-3.1
	C45.3,41.5,43.9,40.1,42.2,40.1 M42.2,48.1c-2.7,0-4.8-2.2-4.8-4.8c0-2.7,2.2-4.8,4.8-4.8c2.7,0,4.8,2.2,4.8,4.8
	C47,45.9,44.8,48.1,42.2,48.1"/>
</svg>
